<svg xmlns="http://www.w3.org/2000/svg" xmlns:xlink="http://www.w3.org/1999/xlink" width="1280" zoomAndPan="magnify" viewBox="0 0 960 599.999999" height="800" preserveAspectRatio="xMidYMid meet" version="1.0"><defs><clipPath id="c4f5ac2f4f"><path d="M 725 215 L 745.882812 215 L 745.882812 225.449219 L 725 225.449219 Z M 725 215 " clip-rule="nonzero"/></clipPath></defs><path fill="#4d448b" d="M 490.765625 600 C 489.777344 600 488.976562 599.199219 488.976562 598.210938 L 488.976562 581.8125 C 488.976562 580.824219 489.777344 580.023438 490.765625 580.023438 C 491.753906 580.023438 492.554688 580.824219 492.554688 581.8125 L 492.554688 598.210938 C 492.554688 599.199219 491.753906 600 490.765625 600 " fill-opacity="1" fill-rule="nonzero"/><path fill="#4d448b" d="M 490.765625 561.734375 C 489.777344 561.734375 488.976562 560.9375 488.976562 559.945312 L 488.976562 549.015625 C 488.976562 548.027344 489.777344 547.226562 490.765625 547.226562 C 491.753906 547.226562 492.554688 548.027344 492.554688 549.015625 L 492.554688 559.945312 C 492.554688 560.9375 491.753906 561.734375 490.765625 561.734375 " fill-opacity="1" fill-rule="nonzero"/><path fill="#4d448b" d="M 490.765625 527.59375 C 489.777344 527.59375 488.976562 526.792969 488.976562 525.804688 L 488.976562 458.265625 C 488.976562 457.277344 489.777344 456.476562 490.765625 456.476562 C 491.753906 456.476562 492.554688 457.277344 492.554688 458.265625 L 492.554688 525.804688 C 492.554688 526.792969 491.753906 527.59375 490.765625 527.59375 " fill-opacity="1" fill-rule="nonzero"/><path fill="#4d448b" d="M 547.097656 566.839844 C 546.269531 566.839844 545.523438 566.253906 545.347656 565.414062 C 543.378906 555.949219 541.398438 546.496094 539.410156 537.035156 C 539.207031 536.066406 539.824219 535.121094 540.789062 534.914062 C 541.753906 534.710938 542.710938 535.332031 542.910156 536.300781 C 544.898438 545.757812 546.882812 555.222656 548.851562 564.683594 C 549.054688 565.648438 548.429688 566.59375 547.46875 566.800781 C 547.339844 566.824219 547.21875 566.839844 547.097656 566.839844 " fill-opacity="1" fill-rule="nonzero"/><path fill="#4d448b" d="M 536.851562 518.066406 C 536.023438 518.066406 535.28125 517.488281 535.105469 516.644531 L 532.851562 506.011719 C 532.640625 505.042969 533.261719 504.097656 534.226562 503.890625 C 535.183594 503.683594 536.144531 504.300781 536.34375 505.265625 L 538.605469 515.90625 C 538.808594 516.875 538.191406 517.820312 537.226562 518.023438 C 537.097656 518.050781 536.972656 518.066406 536.851562 518.066406 " fill-opacity="1" fill-rule="nonzero"/><path fill="#4d448b" d="M 577.902344 496.15625 C 577.238281 496.15625 576.59375 495.785156 576.285156 495.140625 C 571.164062 484.386719 565.929688 473.105469 560.277344 460.652344 C 559.871094 459.753906 560.265625 458.691406 561.167969 458.28125 C 562.070312 457.875 563.128906 458.273438 563.539062 459.171875 C 569.179688 471.605469 574.410156 482.871094 579.519531 493.597656 C 579.945312 494.492188 579.566406 495.5625 578.671875 495.984375 C 578.425781 496.101562 578.160156 496.15625 577.902344 496.15625 " fill-opacity="1" fill-rule="nonzero"/><path fill="#4d448b" d="M 645.378906 514.59375 C 644.828125 514.59375 644.28125 514.34375 643.933594 513.863281 L 636.941406 504.332031 C 636.351562 503.539062 636.53125 502.414062 637.328125 501.832031 C 638.117188 501.25 639.242188 501.417969 639.824219 502.214844 L 646.816406 511.75 C 647.398438 512.546875 647.234375 513.664062 646.4375 514.246094 C 646.113281 514.484375 645.746094 514.59375 645.378906 514.59375 " fill-opacity="1" fill-rule="nonzero"/><path fill="#4d448b" d="M 623.882812 485.25 C 623.328125 485.25 622.785156 484.996094 622.433594 484.519531 C 608.054688 464.832031 595.304688 447.246094 583.460938 430.761719 C 582.882812 429.960938 583.066406 428.839844 583.867188 428.261719 C 584.667969 427.691406 585.792969 427.867188 586.363281 428.671875 C 598.210938 445.148438 610.953125 462.726562 625.324219 482.40625 C 625.910156 483.203125 625.734375 484.320312 624.9375 484.90625 C 624.621094 485.136719 624.25 485.25 623.882812 485.25 " fill-opacity="1" fill-rule="nonzero"/><path fill="#4d448b" d="M 681.988281 473.96875 C 681.550781 473.96875 681.113281 473.808594 680.765625 473.488281 C 670.578125 463.988281 660.566406 455.214844 649.96875 445.921875 L 649.191406 445.242188 C 648.445312 444.589844 648.371094 443.457031 649.023438 442.71875 C 649.675781 441.972656 650.804688 441.898438 651.546875 442.550781 L 652.324219 443.234375 C 662.945312 452.539062 672.976562 461.332031 683.207031 470.871094 C 683.929688 471.546875 683.96875 472.679688 683.296875 473.398438 C 682.941406 473.777344 682.46875 473.96875 681.988281 473.96875 " fill-opacity="1" fill-rule="nonzero"/><path fill="#4d448b" d="M 711.3125 429.125 C 711.023438 429.125 710.726562 429.054688 710.453125 428.90625 C 709.171875 428.203125 707.890625 427.496094 706.613281 426.78125 C 705.75 426.296875 705.445312 425.207031 705.929688 424.34375 C 706.410156 423.484375 707.503906 423.179688 708.359375 423.660156 C 709.628906 424.367188 710.902344 425.070312 712.171875 425.765625 C 713.039062 426.234375 713.359375 427.328125 712.886719 428.191406 C 712.558594 428.789062 711.945312 429.125 711.3125 429.125 " fill-opacity="1" fill-rule="nonzero"/><path fill="#4d448b" d="M 686.261719 414.800781 C 685.957031 414.800781 685.652344 414.726562 685.371094 414.570312 C 680.363281 411.695312 676.253906 409.40625 672.429688 407.363281 C 671.558594 406.898438 671.230469 405.8125 671.695312 404.941406 C 672.160156 404.070312 673.242188 403.738281 674.117188 404.207031 C 677.972656 406.265625 682.113281 408.570312 687.152344 411.460938 C 688.007812 411.953125 688.304688 413.050781 687.8125 413.90625 C 687.480469 414.480469 686.878906 414.800781 686.261719 414.800781 " fill-opacity="1" fill-rule="nonzero"/><path fill="#4d448b" d="M 737.640625 382.003906 C 737.472656 382.003906 737.300781 381.980469 737.128906 381.929688 C 726.378906 378.703125 715.542969 375.1875 705.058594 371.78125 C 695.128906 368.554688 684.859375 365.21875 674.707031 362.148438 C 673.757812 361.863281 673.222656 360.863281 673.511719 359.917969 C 673.796875 358.972656 674.792969 358.441406 675.738281 358.722656 C 685.929688 361.804688 696.214844 365.144531 706.160156 368.378906 C 716.628906 371.777344 727.445312 375.289062 738.152344 378.503906 C 739.105469 378.789062 739.640625 379.785156 739.355469 380.730469 C 739.125 381.503906 738.414062 382.003906 737.640625 382.003906 " fill-opacity="1" fill-rule="nonzero"/><g clip-path="url(#c4f5ac2f4f)"><path fill="#4d448b" d="M 726.859375 225.007812 C 726.105469 225.007812 725.402344 224.53125 725.160156 223.769531 C 724.855469 222.828125 725.375 221.820312 726.3125 221.519531 C 732.058594 219.667969 737.804688 217.824219 743.550781 215.984375 C 744.496094 215.679688 745.496094 216.199219 745.800781 217.140625 C 746.101562 218.082031 745.585938 219.085938 744.644531 219.390625 C 738.894531 221.234375 733.15625 223.082031 727.410156 224.925781 C 727.226562 224.980469 727.042969 225.007812 726.859375 225.007812 " fill-opacity="1" fill-rule="nonzero"/></g><path fill="#4d448b" d="M 689.820312 236.953125 C 689.066406 236.953125 688.363281 236.46875 688.121094 235.710938 C 687.816406 234.769531 688.328125 233.765625 689.269531 233.457031 C 698.171875 230.582031 707.070312 227.710938 715.976562 224.847656 C 716.914062 224.542969 717.921875 225.0625 718.226562 226 C 718.527344 226.941406 718.011719 227.949219 717.070312 228.253906 C 708.171875 231.117188 699.269531 233.988281 690.371094 236.863281 C 690.1875 236.921875 690.003906 236.953125 689.820312 236.953125 " fill-opacity="1" fill-rule="nonzero"/><path fill="#4d448b" d="M 711.855469 173.96875 C 711.230469 173.96875 710.621094 173.636719 710.292969 173.050781 C 709.808594 172.1875 710.117188 171.097656 710.984375 170.617188 C 712.949219 169.515625 714.925781 168.433594 716.910156 167.367188 C 717.78125 166.898438 718.867188 167.226562 719.339844 168.097656 C 719.804688 168.96875 719.472656 170.054688 718.601562 170.519531 C 716.636719 171.574219 714.679688 172.648438 712.730469 173.742188 C 712.453125 173.894531 712.152344 173.96875 711.855469 173.96875 " fill-opacity="1" fill-rule="nonzero"/><path fill="#4d448b" d="M 685.015625 189.746094 C 684.40625 189.746094 683.808594 189.429688 683.472656 188.867188 C 682.972656 188.011719 683.253906 186.917969 684.109375 186.414062 C 686.160156 185.203125 688.207031 183.980469 690.253906 182.757812 C 691.097656 182.242188 692.203125 182.519531 692.710938 183.367188 C 693.21875 184.214844 692.941406 185.316406 692.09375 185.824219 C 690.042969 187.050781 687.984375 188.277344 685.925781 189.496094 C 685.640625 189.667969 685.328125 189.746094 685.015625 189.746094 " fill-opacity="1" fill-rule="nonzero"/><path fill="#4d448b" d="M 642.632812 165.988281 C 642.148438 165.988281 641.660156 165.792969 641.308594 165.398438 C 640.644531 164.667969 640.699219 163.535156 641.429688 162.875 C 656.996094 148.773438 670.871094 135.96875 683.855469 123.730469 C 684.578125 123.050781 685.710938 123.085938 686.386719 123.804688 C 687.066406 124.523438 687.035156 125.652344 686.3125 126.335938 C 673.308594 138.589844 659.414062 151.410156 643.835938 165.527344 C 643.492188 165.832031 643.0625 165.988281 642.632812 165.988281 " fill-opacity="1" fill-rule="nonzero"/><path fill="#4d448b" d="M 629.203125 111.042969 C 628.839844 111.042969 628.46875 110.925781 628.152344 110.695312 C 627.355469 110.109375 627.183594 108.992188 627.765625 108.195312 C 633.148438 100.835938 638.539062 93.484375 643.933594 86.136719 C 644.515625 85.335938 645.640625 85.167969 646.4375 85.75 C 647.234375 86.335938 647.398438 87.453125 646.816406 88.25 C 641.421875 95.601562 636.035156 102.953125 630.652344 110.304688 C 630.300781 110.785156 629.757812 111.042969 629.203125 111.042969 " fill-opacity="1" fill-rule="nonzero"/><path fill="#4d448b" d="M 560.984375 143.332031 C 560.734375 143.332031 560.480469 143.28125 560.238281 143.167969 C 559.339844 142.757812 558.945312 141.695312 559.359375 140.796875 C 564.53125 129.511719 569.609375 117.953125 574.519531 106.769531 C 581.433594 91.015625 588.59375 74.730469 596.136719 58.925781 C 596.566406 58.035156 597.628906 57.65625 598.523438 58.082031 C 599.417969 58.511719 599.792969 59.578125 599.363281 60.46875 C 591.84375 76.222656 584.703125 92.484375 577.796875 108.207031 C 572.878906 119.402344 567.796875 130.980469 562.609375 142.289062 C 562.308594 142.945312 561.660156 143.332031 560.984375 143.332031 " fill-opacity="1" fill-rule="nonzero"/><path fill="#4d448b" d="M 490.765625 15.40625 C 489.777344 15.40625 488.976562 14.609375 488.976562 13.613281 L 488.976562 1.789062 C 488.976562 0.800781 489.777344 0 490.765625 0 C 491.753906 0 492.554688 0.800781 492.554688 1.789062 L 492.554688 13.613281 C 492.554688 14.609375 491.753906 15.40625 490.765625 15.40625 " fill-opacity="1" fill-rule="nonzero"/><path fill="#4d448b" d="M 490.765625 75.621094 C 489.777344 75.621094 488.976562 74.824219 488.976562 73.832031 L 488.976562 36.339844 C 488.976562 35.351562 489.777344 34.550781 490.765625 34.550781 C 491.753906 34.550781 492.554688 35.351562 492.554688 36.339844 L 492.554688 73.832031 C 492.554688 74.824219 491.753906 75.621094 490.765625 75.621094 " fill-opacity="1" fill-rule="nonzero"/><path fill="#4d448b" d="M 448.003906 99.792969 C 447.179688 99.792969 446.4375 99.21875 446.257812 98.382812 L 444.601562 90.746094 C 441.550781 76.617188 438.496094 62.488281 435.445312 48.363281 C 435.238281 47.390625 435.851562 46.441406 436.816406 46.238281 C 437.78125 46.03125 438.738281 46.640625 438.941406 47.605469 C 441.992188 61.734375 445.046875 75.863281 448.101562 89.984375 L 449.757812 97.625 C 449.960938 98.589844 449.351562 99.542969 448.382812 99.75 C 448.257812 99.78125 448.128906 99.792969 448.003906 99.792969 " fill-opacity="1" fill-rule="nonzero"/><path fill="#4d448b" d="M 393.582031 83.054688 C 392.90625 83.054688 392.253906 82.667969 391.953125 82.011719 C 389.695312 77.0625 387.425781 72.121094 385.148438 67.179688 C 384.734375 66.285156 385.125 65.222656 386.023438 64.804688 C 386.917969 64.394531 387.980469 64.785156 388.394531 65.679688 C 390.679688 70.625 392.949219 75.574219 395.207031 80.527344 C 395.617188 81.425781 395.222656 82.488281 394.320312 82.898438 C 394.085938 83.003906 393.832031 83.054688 393.582031 83.054688 " fill-opacity="1" fill-rule="nonzero"/><path fill="#4d448b" d="M 427.878906 161.765625 C 427.191406 161.765625 426.539062 161.363281 426.238281 160.695312 C 416.929688 139.488281 408.644531 120.210938 400.90625 101.769531 C 400.523438 100.855469 400.953125 99.808594 401.867188 99.425781 C 402.777344 99.042969 403.828125 99.472656 404.210938 100.386719 C 411.941406 118.808594 420.21875 138.066406 429.519531 159.253906 C 429.917969 160.164062 429.5 161.214844 428.597656 161.613281 C 428.363281 161.714844 428.121094 161.765625 427.878906 161.765625 " fill-opacity="1" fill-rule="nonzero"/><path fill="#4d448b" d="M 345.554688 100.597656 C 345.039062 100.597656 344.515625 100.371094 344.160156 99.933594 C 342.042969 97.304688 339.902344 94.804688 337.804688 92.5 C 337.140625 91.769531 337.195312 90.636719 337.925781 89.972656 C 338.660156 89.308594 339.785156 89.359375 340.453125 90.09375 C 342.597656 92.449219 344.78125 95.003906 346.949219 97.6875 C 347.566406 98.457031 347.445312 99.578125 346.683594 100.203125 C 346.347656 100.46875 345.953125 100.597656 345.554688 100.597656 " fill-opacity="1" fill-rule="nonzero"/><path fill="#4d448b" d="M 377.148438 145.101562 C 376.597656 145.101562 376.054688 144.851562 375.703125 144.371094 C 372.015625 139.34375 368.4375 134.132812 365.125 129.253906 C 364.570312 128.4375 364.785156 127.320312 365.601562 126.765625 C 366.421875 126.214844 367.53125 126.425781 368.085938 127.242188 C 371.382812 132.097656 374.933594 137.273438 378.589844 142.253906 C 379.171875 143.050781 379 144.171875 378.203125 144.757812 C 377.886719 144.992188 377.515625 145.101562 377.148438 145.101562 " fill-opacity="1" fill-rule="nonzero"/><path fill="#4d448b" d="M 226.808594 216.027344 C 226.644531 216.027344 226.480469 216.003906 226.320312 215.957031 C 223.273438 215.101562 220.335938 213.925781 217.492188 212.789062 C 216.820312 212.523438 216.15625 212.25 215.488281 211.992188 C 214.566406 211.628906 214.113281 210.589844 214.476562 209.671875 C 214.835938 208.753906 215.875 208.296875 216.796875 208.660156 C 217.472656 208.925781 218.144531 209.195312 218.820312 209.464844 C 221.574219 210.570312 224.425781 211.707031 227.285156 212.511719 C 228.238281 212.777344 228.792969 213.765625 228.527344 214.714844 C 228.308594 215.507812 227.585938 216.027344 226.808594 216.027344 " fill-opacity="1" fill-rule="nonzero"/><path fill="#4d448b" d="M 234.933594 384.914062 C 234.171875 384.914062 233.464844 384.421875 233.226562 383.65625 C 232.933594 382.714844 233.457031 381.714844 234.398438 381.417969 C 239.023438 379.96875 243.644531 378.511719 248.265625 377.054688 C 249.207031 376.761719 250.210938 377.277344 250.511719 378.21875 C 250.808594 379.160156 250.285156 380.167969 249.34375 380.464844 C 244.71875 381.929688 240.097656 383.382812 235.46875 384.832031 C 235.292969 384.886719 235.109375 384.914062 234.933594 384.914062 " fill-opacity="1" fill-rule="nonzero"/><path fill="#4d448b" d="M 270.460938 373.671875 C 269.703125 373.671875 269 373.1875 268.757812 372.429688 C 268.453125 371.480469 268.976562 370.476562 269.917969 370.175781 C 278.863281 367.316406 287.808594 364.441406 296.746094 361.550781 C 297.6875 361.25 298.695312 361.761719 299 362.703125 C 299.304688 363.644531 298.789062 364.65625 297.847656 364.957031 C 288.90625 367.847656 279.957031 370.722656 271.007812 373.582031 C 270.824219 373.644531 270.640625 373.671875 270.460938 373.671875 " fill-opacity="1" fill-rule="nonzero"/><path fill="#4d448b" d="M 267.957031 429.101562 C 267.371094 429.101562 266.800781 428.816406 266.453125 428.296875 C 265.914062 427.472656 266.140625 426.363281 266.96875 425.816406 C 268.691406 424.683594 270.542969 423.949219 272.335938 423.238281 C 273.476562 422.789062 274.558594 422.359375 275.585938 421.84375 C 276.46875 421.398438 277.542969 421.75 277.988281 422.632812 C 278.433594 423.519531 278.082031 424.589844 277.195312 425.039062 C 276.027344 425.625 274.820312 426.105469 273.652344 426.566406 C 271.953125 427.242188 270.351562 427.875 268.933594 428.808594 C 268.628906 429.003906 268.289062 429.101562 267.957031 429.101562 " fill-opacity="1" fill-rule="nonzero"/><path fill="#4d448b" d="M 298.09375 475.273438 C 297.597656 475.273438 297.109375 475.066406 296.753906 474.675781 C 296.097656 473.9375 296.164062 472.808594 296.898438 472.148438 C 307.496094 462.667969 318.296875 452.933594 329.921875 442.390625 C 330.652344 441.730469 331.785156 441.785156 332.449219 442.515625 C 333.109375 443.25 333.058594 444.378906 332.328125 445.046875 C 320.695312 455.589844 309.890625 465.328125 299.285156 474.816406 C 298.941406 475.121094 298.515625 475.273438 298.09375 475.273438 " fill-opacity="1" fill-rule="nonzero"/><path fill="#4d448b" d="M 345.890625 432.078125 C 345.40625 432.078125 344.921875 431.882812 344.566406 431.492188 C 343.902344 430.765625 343.957031 429.632812 344.683594 428.96875 L 352.054688 422.238281 C 352.785156 421.570312 353.917969 421.625 354.585938 422.355469 C 355.25 423.082031 355.199219 424.214844 354.46875 424.878906 L 347.097656 431.613281 C 346.753906 431.925781 346.324219 432.078125 345.890625 432.078125 " fill-opacity="1" fill-rule="nonzero"/><path fill="#4d448b" d="M 360.167969 481.710938 C 359.808594 481.710938 359.445312 481.605469 359.128906 481.378906 C 358.324219 480.804688 358.140625 479.6875 358.71875 478.882812 C 362.925781 473.007812 367.121094 467.125 371.308594 461.238281 C 371.882812 460.433594 372.996094 460.242188 373.800781 460.816406 C 374.605469 461.386719 374.796875 462.507812 374.226562 463.308594 C 370.03125 469.203125 365.839844 475.089844 361.625 480.96875 C 361.277344 481.453125 360.726562 481.710938 360.167969 481.710938 " fill-opacity="1" fill-rule="nonzero"/><path fill="#4d448b" d="M 441.148438 535.265625 C 441.027344 535.265625 440.902344 535.253906 440.777344 535.226562 C 439.8125 535.023438 439.191406 534.070312 439.398438 533.109375 C 441.214844 524.519531 443.03125 515.933594 444.839844 507.34375 C 445.042969 506.378906 445.992188 505.761719 446.957031 505.964844 C 447.925781 506.171875 448.546875 507.117188 448.339844 508.085938 C 446.53125 516.671875 444.71875 525.261719 442.902344 533.847656 C 442.71875 534.691406 441.980469 535.265625 441.148438 535.265625 " fill-opacity="1" fill-rule="nonzero"/><path fill="#4d448b" d="M 451.453125 486.378906 C 451.316406 486.378906 451.183594 486.363281 451.042969 486.332031 C 450.082031 486.105469 449.484375 485.140625 449.710938 484.183594 C 451.773438 475.378906 453.898438 466.09375 456.023438 456.578125 C 456.238281 455.613281 457.199219 455.007812 458.15625 455.222656 C 459.121094 455.4375 459.734375 456.394531 459.511719 457.363281 C 457.390625 466.886719 455.265625 476.1875 453.195312 484.996094 C 453 485.824219 452.261719 486.378906 451.453125 486.378906 " fill-opacity="1" fill-rule="nonzero"/><path fill="#4d448b" d="M 529.871094 485.226562 C 529.058594 485.226562 528.320312 484.667969 528.128906 483.835938 C 524.304688 467.285156 520.398438 449.683594 516.183594 430.023438 C 515.972656 429.058594 516.59375 428.109375 517.558594 427.898438 C 518.511719 427.695312 519.476562 428.308594 519.683594 429.273438 C 523.894531 448.914062 527.800781 466.5 531.617188 483.03125 C 531.839844 483.996094 531.238281 484.957031 530.277344 485.179688 C 530.136719 485.210938 530.003906 485.226562 529.871094 485.226562 " fill-opacity="1" fill-rule="nonzero"/><path fill="#4d448b" d="M 553.050781 441.972656 C 552.363281 441.972656 551.710938 441.574219 551.414062 440.910156 C 548.8125 435.074219 546.238281 429.242188 543.667969 423.390625 C 543.273438 422.484375 543.683594 421.433594 544.59375 421.03125 C 545.496094 420.636719 546.550781 421.050781 546.945312 421.953125 C 549.507812 427.796875 552.085938 433.621094 554.683594 439.457031 C 555.085938 440.355469 554.679688 441.417969 553.777344 441.816406 C 553.542969 441.921875 553.296875 441.972656 553.050781 441.972656 " fill-opacity="1" fill-rule="nonzero"/><path fill="#4d448b" d="M 621.53125 418.710938 C 621.117188 418.710938 620.695312 418.566406 620.355469 418.273438 C 613.273438 412.132812 605.597656 405.375 596.914062 397.621094 C 596.171875 396.960938 596.109375 395.832031 596.769531 395.097656 C 597.425781 394.355469 598.558594 394.296875 599.296875 394.953125 C 607.972656 402.695312 615.625 409.4375 622.703125 415.570312 C 623.449219 416.21875 623.53125 417.347656 622.882812 418.097656 C 622.527344 418.5 622.027344 418.710938 621.53125 418.710938 " fill-opacity="1" fill-rule="nonzero"/><path fill="#4d448b" d="M 646.671875 391.238281 C 646.394531 391.238281 646.113281 391.179688 645.847656 391.039062 C 639.609375 387.78125 631.378906 383.433594 623.101562 378.703125 C 622.242188 378.214844 621.945312 377.125 622.433594 376.265625 C 622.921875 375.40625 624.019531 375.113281 624.875 375.601562 C 633.105469 380.292969 641.292969 384.621094 647.503906 387.863281 C 648.378906 388.320312 648.71875 389.402344 648.261719 390.277344 C 647.941406 390.890625 647.320312 391.238281 646.671875 391.238281 " fill-opacity="1" fill-rule="nonzero"/><path fill="#4d448b" d="M 651.160156 249.339844 C 650.402344 249.339844 649.699219 248.851562 649.457031 248.09375 C 649.15625 247.152344 649.675781 246.144531 650.621094 245.847656 C 656.0625 244.113281 661.492188 242.398438 666.894531 240.691406 C 667.832031 240.390625 668.84375 240.917969 669.136719 241.859375 C 669.433594 242.800781 668.914062 243.804688 667.96875 244.105469 C 662.566406 245.808594 657.140625 247.527344 651.699219 249.257812 C 651.523438 249.3125 651.34375 249.339844 651.160156 249.339844 " fill-opacity="1" fill-rule="nonzero"/><path fill="#4d448b" d="M 624.144531 224.742188 C 623.53125 224.742188 622.933594 224.425781 622.601562 223.863281 C 622.097656 223.011719 622.382812 221.914062 623.234375 221.414062 C 624.75 220.523438 626.273438 219.632812 627.800781 218.738281 L 628.132812 218.546875 C 636.582031 213.617188 645.222656 208.714844 653.578125 203.976562 C 658.085938 201.417969 662.59375 198.863281 667.089844 196.292969 C 667.949219 195.804688 669.042969 196.097656 669.53125 196.953125 C 670.023438 197.816406 669.730469 198.90625 668.867188 199.394531 C 664.367188 201.972656 659.855469 204.53125 655.34375 207.089844 C 646.996094 211.824219 638.367188 216.71875 629.9375 221.636719 L 629.605469 221.832031 C 628.082031 222.71875 626.5625 223.605469 625.054688 224.496094 C 624.765625 224.664062 624.453125 224.742188 624.144531 224.742188 " fill-opacity="1" fill-rule="nonzero"/><path fill="#4d448b" d="M 598.546875 205.742188 C 598.054688 205.742188 597.566406 205.542969 597.210938 205.144531 C 596.550781 204.40625 596.617188 203.277344 597.351562 202.617188 C 606.703125 194.269531 615.976562 185.90625 624.917969 177.757812 C 625.648438 177.09375 626.777344 177.148438 627.449219 177.878906 C 628.109375 178.605469 628.058594 179.738281 627.332031 180.402344 C 618.378906 188.558594 609.097656 196.929688 599.738281 205.285156 C 599.398438 205.59375 598.96875 205.742188 598.546875 205.742188 " fill-opacity="1" fill-rule="nonzero"/><path fill="#4d448b" d="M 571.8125 190.273438 C 571.449219 190.273438 571.085938 190.160156 570.769531 189.933594 C 569.964844 189.355469 569.785156 188.234375 570.359375 187.433594 L 586.5 165.011719 C 595.296875 152.792969 604.523438 140.054688 613.917969 127.164062 C 614.5 126.367188 615.617188 126.191406 616.417969 126.773438 C 617.214844 127.355469 617.394531 128.472656 616.808594 129.273438 C 607.417969 142.15625 598.195312 154.886719 589.40625 167.101562 L 573.265625 189.527344 C 572.917969 190.011719 572.367188 190.273438 571.8125 190.273438 " fill-opacity="1" fill-rule="nonzero"/><path fill="#4d448b" d="M 518.101562 172.128906 C 517.972656 172.128906 517.839844 172.113281 517.710938 172.085938 C 516.746094 171.871094 516.136719 170.917969 516.351562 169.953125 L 517.03125 166.875 C 523.753906 136.5 530.707031 105.089844 536.984375 74.222656 C 537.179688 73.246094 538.128906 72.628906 539.089844 72.824219 C 540.058594 73.019531 540.683594 73.964844 540.488281 74.933594 C 534.207031 105.832031 527.25 137.257812 520.527344 167.648438 L 519.84375 170.726562 C 519.660156 171.558594 518.921875 172.128906 518.101562 172.128906 " fill-opacity="1" fill-rule="nonzero"/><path fill="#4d448b" d="M 490.761719 169.789062 C 489.773438 169.789062 488.972656 168.988281 488.972656 168 L 488.972656 95.761719 C 488.972656 94.769531 489.773438 93.972656 490.761719 93.972656 C 491.75 93.972656 492.550781 94.769531 492.550781 95.761719 L 492.550781 168 C 492.550781 168.988281 491.75 169.789062 490.761719 169.789062 " fill-opacity="1" fill-rule="nonzero"/><path fill="#4d448b" d="M 463.546875 172.152344 C 462.71875 172.152344 461.976562 171.574219 461.796875 170.730469 C 459.695312 160.707031 457.445312 150.164062 455.109375 139.394531 C 454.902344 138.425781 455.515625 137.476562 456.480469 137.265625 C 457.445312 137.054688 458.398438 137.667969 458.609375 138.636719 C 460.945312 149.414062 463.199219 159.964844 465.300781 169.992188 C 465.503906 170.964844 464.886719 171.910156 463.917969 172.113281 C 463.796875 172.136719 463.667969 172.152344 463.546875 172.152344 " fill-opacity="1" fill-rule="nonzero"/><path fill="#4d448b" d="M 409.683594 190.304688 C 409.144531 190.304688 408.613281 190.0625 408.257812 189.601562 C 404.292969 184.386719 400.035156 178.847656 394.859375 172.160156 C 394.253906 171.378906 394.394531 170.253906 395.179688 169.648438 C 395.960938 169.046875 397.085938 169.1875 397.691406 169.972656 C 402.871094 176.667969 407.136719 182.214844 411.105469 187.433594 C 411.703125 188.21875 411.554688 189.339844 410.765625 189.941406 C 410.445312 190.1875 410.0625 190.304688 409.683594 190.304688 " fill-opacity="1" fill-rule="nonzero"/><path fill="#4d448b" d="M 383.640625 205.335938 C 383.214844 205.335938 382.789062 205.183594 382.445312 204.875 L 368.945312 192.722656 C 364.324219 188.5625 359.707031 184.402344 355.082031 180.246094 L 307.019531 136.96875 C 306.289062 136.304688 306.230469 135.179688 306.890625 134.441406 C 307.546875 133.707031 308.679688 133.644531 309.414062 134.308594 L 357.472656 177.585938 C 362.097656 181.742188 366.71875 185.90625 371.339844 190.066406 L 384.839844 202.214844 C 385.570312 202.875 385.632812 204.007812 384.96875 204.746094 C 384.621094 205.136719 384.132812 205.335938 383.640625 205.335938 " fill-opacity="1" fill-rule="nonzero"/><path fill="#4d448b" d="M 357.074219 225.054688 C 356.773438 225.054688 356.472656 224.976562 356.191406 224.824219 C 349.917969 221.257812 344.804688 218.3125 340.101562 215.550781 C 331.53125 210.519531 322.945312 205.203125 314.648438 200.0625 C 309.671875 196.980469 304.691406 193.898438 299.691406 190.859375 C 298.847656 190.34375 298.578125 189.242188 299.089844 188.398438 C 299.601562 187.554688 300.707031 187.285156 301.550781 187.796875 C 306.558594 190.84375 311.546875 193.933594 316.53125 197.019531 C 324.816406 202.148438 333.378906 207.453125 341.917969 212.464844 C 346.605469 215.21875 351.699219 218.15625 357.957031 221.707031 C 358.820312 222.195312 359.117188 223.289062 358.632812 224.148438 C 358.304688 224.730469 357.699219 225.054688 357.074219 225.054688 " fill-opacity="1" fill-rule="nonzero"/><path fill="#4d448b" d="M 330.035156 249.710938 C 329.851562 249.710938 329.667969 249.679688 329.484375 249.621094 C 304.894531 241.640625 278.398438 233.019531 251.222656 224.058594 C 250.285156 223.746094 249.777344 222.734375 250.085938 221.800781 C 250.398438 220.859375 251.414062 220.351562 252.34375 220.65625 C 279.511719 229.617188 306.003906 238.238281 330.589844 246.21875 C 331.53125 246.523438 332.042969 247.535156 331.738281 248.476562 C 331.492188 249.230469 330.789062 249.710938 330.035156 249.710938 " fill-opacity="1" fill-rule="nonzero"/><path fill="#4d448b" d="M 318.058594 358.320312 C 317.304688 358.320312 316.605469 357.839844 316.359375 357.085938 C 316.050781 356.148438 316.5625 355.136719 317.503906 354.828125 L 322.023438 353.351562 C 324.636719 352.5 327.246094 351.644531 329.855469 350.785156 C 330.792969 350.472656 331.804688 350.984375 332.117188 351.921875 C 332.425781 352.863281 331.917969 353.875 330.980469 354.1875 C 328.367188 355.046875 325.753906 355.902344 323.136719 356.753906 L 318.617188 358.230469 C 318.433594 358.289062 318.246094 358.320312 318.058594 358.320312 " fill-opacity="1" fill-rule="nonzero"/><path fill="#4d448b" d="M 299.109375 412.578125 C 298.480469 412.578125 297.875 412.253906 297.542969 411.664062 C 297.0625 410.804688 297.371094 409.714844 298.234375 409.230469 L 303.484375 406.289062 C 315.800781 399.40625 328.527344 392.285156 340.941406 385.03125 C 346.234375 381.933594 351.535156 378.839844 356.832031 375.75 C 357.6875 375.25 358.777344 375.539062 359.277344 376.394531 C 359.777344 377.25 359.488281 378.34375 358.632812 378.84375 C 353.339844 381.929688 348.042969 385.019531 342.75 388.121094 C 330.308594 395.394531 317.5625 402.519531 305.230469 409.414062 L 299.980469 412.351562 C 299.699219 412.503906 299.402344 412.578125 299.109375 412.578125 " fill-opacity="1" fill-rule="nonzero"/><path fill="#4d448b" d="M 371.117188 409 C 370.632812 409 370.148438 408.804688 369.792969 408.417969 C 369.132812 407.6875 369.183594 406.558594 369.910156 405.894531 C 372.421875 403.59375 374.957031 401.207031 377.40625 398.890625 C 378.867188 397.503906 380.328125 396.125 381.800781 394.75 C 382.523438 394.074219 383.65625 394.117188 384.328125 394.839844 C 385.003906 395.558594 384.964844 396.695312 384.242188 397.367188 C 382.777344 398.734375 381.320312 400.113281 379.863281 401.488281 C 377.402344 403.816406 374.859375 406.21875 372.324219 408.535156 C 371.980469 408.847656 371.546875 409 371.117188 409 " fill-opacity="1" fill-rule="nonzero"/><path fill="#4d448b" d="M 386.25 445.121094 C 385.882812 445.121094 385.515625 445.007812 385.195312 444.773438 C 384.398438 444.191406 384.230469 443.066406 384.8125 442.269531 C 391.855469 432.695312 399.355469 422.601562 408.402344 410.503906 C 409 409.714844 410.117188 409.554688 410.910156 410.148438 C 411.703125 410.738281 411.859375 411.855469 411.269531 412.648438 C 402.222656 424.734375 394.738281 434.824219 387.695312 444.394531 C 387.347656 444.871094 386.800781 445.121094 386.25 445.121094 " fill-opacity="1" fill-rule="nonzero"/><path fill="#4d448b" d="M 392.78125 521.964844 C 392.53125 521.964844 392.285156 521.914062 392.046875 521.808594 C 391.148438 521.402344 390.742188 520.351562 391.144531 519.445312 C 397.941406 504.230469 405.1875 487.902344 412.101562 471.574219 C 419.808594 453.367188 427.851562 435.363281 433.992188 421.710938 C 434.398438 420.8125 435.457031 420.40625 436.359375 420.8125 C 437.257812 421.21875 437.664062 422.28125 437.257812 423.179688 C 431.121094 436.8125 423.09375 454.800781 415.398438 472.96875 C 408.472656 489.320312 401.21875 505.671875 394.410156 520.902344 C 394.117188 521.570312 393.460938 521.964844 392.78125 521.964844 " fill-opacity="1" fill-rule="nonzero"/><path fill="#4d448b" d="M 462.277344 438.261719 C 462.144531 438.261719 462.019531 438.25 461.890625 438.21875 C 460.925781 438.007812 460.316406 437.050781 460.53125 436.085938 L 462.019531 429.3125 C 462.234375 428.347656 463.191406 427.742188 464.15625 427.949219 C 465.117188 428.164062 465.726562 429.121094 465.511719 430.085938 L 464.023438 436.859375 C 463.835938 437.695312 463.097656 438.261719 462.277344 438.261719 " fill-opacity="1" fill-rule="nonzero"/><path fill="#4d448b" d="M 490.761719 230.148438 C 485.84375 230.148438 480.976562 230.652344 476.277344 231.644531 C 471.417969 232.667969 466.664062 234.214844 462.160156 236.238281 C 457.984375 238.121094 453.972656 240.417969 450.238281 243.070312 C 446.070312 246.046875 442.230469 249.476562 438.828125 253.246094 C 435.632812 256.804688 432.820312 260.65625 430.464844 264.683594 C 427.929688 269.003906 425.863281 273.613281 424.316406 278.390625 C 422.050781 285.351562 420.90625 292.625 420.90625 300 C 420.90625 307.414062 422.054688 314.707031 424.324219 321.679688 C 425.859375 326.359375 427.867188 330.851562 430.289062 335.03125 C 432.757812 339.273438 435.703125 343.300781 439.054688 347 C 442.445312 350.71875 446.253906 354.09375 450.359375 357.015625 C 454.042969 359.625 457.988281 361.882812 462.089844 363.722656 C 466.78125 365.84375 471.734375 367.433594 476.808594 368.457031 C 486 370.332031 495.886719 370.308594 505.042969 368.386719 C 509.980469 367.371094 514.839844 365.796875 519.5 363.699219 C 524.179688 361.582031 528.621094 358.957031 532.6875 355.894531 C 536.449219 353.070312 539.917969 349.875 543.003906 346.394531 C 546.09375 342.921875 548.851562 339.113281 551.203125 335.0625 C 553.644531 330.851562 555.628906 326.417969 557.113281 321.90625 C 559.4375 314.851562 560.613281 307.480469 560.613281 300 C 560.613281 292.445312 559.417969 285.019531 557.066406 277.921875 C 555.625 273.617188 553.78125 269.46875 551.578125 265.597656 C 549.105469 261.226562 546.164062 257.128906 542.816406 253.398438 C 539.558594 249.75 535.910156 246.449219 531.980469 243.582031 C 527.984375 240.664062 523.734375 238.195312 519.351562 236.242188 C 514.65625 234.128906 509.730469 232.546875 504.710938 231.542969 C 500.167969 230.613281 495.476562 230.148438 490.761719 230.148438 Z M 490.761719 373.429688 C 485.796875 373.429688 480.867188 372.9375 476.101562 371.960938 C 470.765625 370.890625 465.558594 369.210938 460.617188 366.984375 C 456.3125 365.050781 452.164062 362.679688 448.285156 359.929688 C 443.96875 356.859375 439.972656 353.320312 436.402344 349.410156 C 432.882812 345.519531 429.785156 341.289062 427.195312 336.828125 C 424.644531 332.433594 422.535156 327.710938 420.921875 322.789062 C 418.539062 315.457031 417.324219 307.785156 417.324219 300 C 417.324219 292.246094 418.53125 284.605469 420.910156 277.285156 C 422.535156 272.261719 424.710938 267.414062 427.382812 262.878906 C 429.851562 258.640625 432.808594 254.59375 436.167969 250.851562 C 439.742188 246.886719 443.777344 243.289062 448.160156 240.152344 C 452.089844 237.367188 456.308594 234.953125 460.691406 232.976562 C 465.4375 230.847656 470.429688 229.222656 475.542969 228.144531 C 485.214844 226.09375 495.675781 226.046875 505.417969 228.039062 C 510.695312 229.097656 515.875 230.753906 520.816406 232.976562 C 525.421875 235.03125 529.890625 237.628906 534.089844 240.6875 C 538.222656 243.707031 542.058594 247.179688 545.488281 251.007812 C 549 254.929688 552.097656 259.242188 554.6875 263.835938 C 557.003906 267.90625 558.949219 272.261719 560.457031 276.796875 C 562.9375 284.261719 564.191406 292.066406 564.191406 300 C 564.191406 307.859375 562.949219 315.605469 560.507812 323.023438 C 558.957031 327.769531 556.867188 332.425781 554.296875 336.863281 C 551.824219 341.121094 548.921875 345.121094 545.679688 348.769531 C 542.433594 352.429688 538.785156 355.789062 534.835938 358.757812 C 530.558594 361.972656 525.894531 364.734375 520.972656 366.960938 C 516.070312 369.171875 510.953125 370.828125 505.769531 371.890625 C 500.898438 372.914062 495.84375 373.429688 490.761719 373.429688 " fill-opacity="1" fill-rule="nonzero"/><path fill="#4d448b" d="M 490.761719 373.429688 C 489.773438 373.429688 488.972656 372.628906 488.972656 371.640625 L 488.972656 334.9375 C 488.972656 333.949219 489.773438 333.148438 490.761719 333.148438 C 491.75 333.148438 492.550781 333.949219 492.550781 334.9375 L 492.550781 371.640625 C 492.550781 372.628906 491.75 373.429688 490.761719 373.429688 " fill-opacity="1" fill-rule="nonzero"/><path fill="#4d448b" d="M 526.582031 363.832031 C 525.964844 363.832031 525.363281 363.507812 525.03125 362.9375 L 506.671875 331.144531 C 506.179688 330.292969 506.472656 329.195312 507.324219 328.703125 C 508.183594 328.207031 509.277344 328.496094 509.769531 329.355469 L 528.128906 361.148438 C 528.625 362 528.332031 363.09375 527.476562 363.589844 C 527.195312 363.75 526.886719 363.832031 526.582031 363.832031 " fill-opacity="1" fill-rule="nonzero"/><path fill="#4d448b" d="M 552.8125 337.613281 C 552.503906 337.613281 552.203125 337.53125 551.917969 337.371094 L 520.117188 319.011719 C 519.257812 318.515625 518.964844 317.421875 519.457031 316.570312 C 519.953125 315.710938 521.046875 315.417969 521.90625 315.914062 L 553.707031 334.269531 C 554.5625 334.765625 554.851562 335.859375 554.359375 336.71875 C 554.03125 337.289062 553.425781 337.613281 552.8125 337.613281 " fill-opacity="1" fill-rule="nonzero"/><path fill="#4d448b" d="M 562.402344 301.789062 L 525.699219 301.789062 C 524.710938 301.789062 523.910156 300.988281 523.910156 300 C 523.910156 299.011719 524.710938 298.210938 525.699219 298.210938 L 562.402344 298.210938 C 563.390625 298.210938 564.191406 299.011719 564.191406 300 C 564.191406 300.988281 563.390625 301.789062 562.402344 301.789062 " fill-opacity="1" fill-rule="nonzero"/><path fill="#4d448b" d="M 521.011719 284.324219 C 520.394531 284.324219 519.792969 284.003906 519.457031 283.429688 C 518.964844 282.574219 519.257812 281.484375 520.117188 280.988281 L 551.917969 262.628906 C 552.773438 262.136719 553.871094 262.429688 554.359375 263.28125 C 554.851562 264.140625 554.5625 265.234375 553.707031 265.730469 L 521.90625 284.085938 C 521.625 284.25 521.316406 284.324219 521.011719 284.324219 " fill-opacity="1" fill-rule="nonzero"/><path fill="#4d448b" d="M 508.21875 271.539062 C 507.917969 271.539062 507.609375 271.460938 507.324219 271.296875 C 506.472656 270.804688 506.179688 269.707031 506.671875 268.855469 L 525.03125 237.0625 C 525.523438 236.210938 526.621094 235.917969 527.476562 236.410156 C 528.332031 236.90625 528.625 238 528.128906 238.851562 L 509.769531 270.644531 C 509.441406 271.21875 508.839844 271.539062 508.21875 271.539062 " fill-opacity="1" fill-rule="nonzero"/><path fill="#4d448b" d="M 490.761719 266.851562 C 489.773438 266.851562 488.972656 266.050781 488.972656 265.0625 L 488.972656 228.359375 C 488.972656 227.367188 489.773438 226.570312 490.761719 226.570312 C 491.75 226.570312 492.550781 227.367188 492.550781 228.359375 L 492.550781 265.0625 C 492.550781 266.050781 491.75 266.851562 490.761719 266.851562 " fill-opacity="1" fill-rule="nonzero"/><path fill="#4d448b" d="M 473.296875 271.539062 C 472.675781 271.539062 472.082031 271.21875 471.746094 270.644531 L 453.390625 238.851562 C 452.898438 238 453.191406 236.90625 454.042969 236.410156 C 454.902344 235.917969 455.996094 236.210938 456.488281 237.0625 L 474.84375 268.855469 C 475.34375 269.707031 475.046875 270.804688 474.191406 271.296875 C 473.90625 271.460938 473.597656 271.539062 473.296875 271.539062 " fill-opacity="1" fill-rule="nonzero"/><path fill="#4d448b" d="M 460.507812 284.324219 C 460.203125 284.324219 459.894531 284.25 459.617188 284.085938 L 427.824219 265.730469 C 426.972656 265.234375 426.679688 264.140625 427.171875 263.28125 C 427.664062 262.429688 428.761719 262.136719 429.613281 262.628906 L 461.40625 280.988281 C 462.257812 281.484375 462.550781 282.578125 462.058594 283.429688 C 461.726562 284.003906 461.125 284.324219 460.507812 284.324219 " fill-opacity="1" fill-rule="nonzero"/><path fill="#4d448b" d="M 455.824219 301.789062 L 419.117188 301.789062 C 418.128906 301.789062 417.324219 300.988281 417.324219 300 C 417.324219 299.011719 418.128906 298.210938 419.117188 298.210938 L 455.824219 298.210938 C 456.8125 298.210938 457.613281 299.011719 457.613281 300 C 457.613281 300.988281 456.8125 301.789062 455.824219 301.789062 " fill-opacity="1" fill-rule="nonzero"/><path fill="#4d448b" d="M 428.722656 337.613281 C 428.105469 337.613281 427.503906 337.289062 427.171875 336.71875 C 426.679688 335.859375 426.964844 334.765625 427.824219 334.269531 L 459.617188 315.914062 C 460.46875 315.417969 461.5625 315.710938 462.058594 316.570312 C 462.550781 317.421875 462.257812 318.515625 461.40625 319.011719 L 429.613281 337.371094 C 429.332031 337.53125 429.027344 337.613281 428.722656 337.613281 " fill-opacity="1" fill-rule="nonzero"/><path fill="#4d448b" d="M 454.9375 363.832031 C 454.636719 363.832031 454.328125 363.75 454.042969 363.589844 C 453.191406 363.09375 452.898438 362 453.390625 361.148438 L 471.746094 329.355469 C 472.238281 328.503906 473.332031 328.203125 474.191406 328.703125 C 475.046875 329.195312 475.34375 330.292969 474.84375 331.144531 L 456.488281 362.9375 C 456.160156 363.507812 455.558594 363.832031 454.9375 363.832031 " fill-opacity="1" fill-rule="nonzero"/><path fill="#413a84" d="M 462.011719 283.46875 Z M 462.136719 316.71875 C 463.238281 318.609375 464.535156 320.394531 466.003906 322.03125 C 467.761719 324.015625 469.726562 325.761719 471.863281 327.222656 C 472.636719 327.777344 473.402344 328.261719 474.167969 328.6875 C 475.160156 329.269531 476.152344 329.785156 477.148438 330.226562 C 479.382812 331.246094 481.753906 332.007812 484.210938 332.492188 C 488.65625 333.390625 493.332031 333.351562 497.5625 332.441406 C 499.988281 331.945312 502.34375 331.171875 504.582031 330.132812 C 505.539062 329.691406 506.457031 329.214844 507.3125 328.707031 C 508.527344 328.019531 509.679688 327.257812 510.753906 326.425781 C 512.566406 325.066406 514.226562 323.527344 515.699219 321.824219 C 516.921875 320.441406 518.042969 318.933594 519.019531 317.339844 C 519.175781 317.089844 519.304688 316.867188 519.425781 316.632812 C 520.570312 314.671875 521.488281 312.644531 522.183594 310.542969 C 523.332031 307.167969 523.910156 303.621094 523.910156 300 C 523.910156 296.589844 523.394531 293.242188 522.378906 290.054688 C 521.71875 287.925781 520.832031 285.863281 519.738281 283.914062 C 519.640625 283.722656 519.574219 283.613281 519.503906 283.5 C 518.316406 281.425781 516.941406 279.535156 515.367188 277.796875 C 513.863281 276.121094 512.179688 274.601562 510.363281 273.269531 C 509.300781 272.488281 508.316406 271.851562 507.347656 271.3125 C 506.453125 270.78125 505.554688 270.308594 504.628906 269.890625 C 502.230469 268.78125 499.734375 267.976562 497.1875 267.484375 C 492.796875 266.601562 488.066406 266.648438 483.8125 267.597656 C 481.460938 268.082031 479.144531 268.851562 476.90625 269.886719 C 476.011719 270.285156 475.109375 270.757812 474.207031 271.292969 C 473.304688 271.800781 472.472656 272.332031 471.695312 272.894531 C 469.675781 274.308594 467.8125 275.957031 466.128906 277.816406 C 464.621094 279.488281 463.28125 281.316406 462.164062 283.246094 C 462.152344 283.273438 462.132812 283.296875 462.117188 283.320312 C 462.097656 283.359375 462.078125 283.402344 462.054688 283.441406 C 460.90625 285.398438 459.964844 287.503906 459.253906 289.707031 C 458.164062 293.03125 457.613281 296.488281 457.613281 300 C 457.613281 303.519531 458.15625 306.960938 459.238281 310.230469 C 459.933594 312.441406 460.878906 314.5625 462.046875 316.554688 C 462.082031 316.605469 462.109375 316.664062 462.136719 316.71875 Z M 490.761719 336.726562 C 488.324219 336.726562 485.886719 336.484375 483.511719 336 C 480.789062 335.464844 478.148438 334.617188 475.675781 333.488281 C 474.574219 333 473.464844 332.425781 472.386719 331.792969 C 471.542969 331.320312 470.664062 330.761719 469.8125 330.15625 C 467.460938 328.550781 465.273438 326.605469 463.328125 324.410156 C 461.679688 322.570312 460.210938 320.546875 458.976562 318.410156 C 458.949219 318.359375 458.921875 318.300781 458.898438 318.25 C 457.617188 316.058594 456.585938 313.730469 455.832031 311.332031 C 454.640625 307.722656 454.035156 303.898438 454.035156 300 C 454.035156 296.109375 454.644531 292.269531 455.851562 288.597656 C 456.625 286.199219 457.65625 283.886719 458.902344 281.738281 C 458.960938 281.609375 459.035156 281.484375 459.117188 281.363281 C 460.355469 279.246094 461.820312 277.246094 463.480469 275.421875 C 465.332031 273.355469 467.402344 271.527344 469.625 269.972656 C 470.480469 269.355469 471.433594 268.75 472.414062 268.195312 C 473.402344 267.613281 474.425781 267.074219 475.425781 266.628906 C 477.890625 265.488281 480.46875 264.632812 483.058594 264.097656 C 487.753906 263.054688 493.042969 263 497.875 263.976562 C 500.695312 264.511719 503.472656 265.414062 506.113281 266.632812 C 507.148438 267.105469 508.171875 267.636719 509.140625 268.210938 C 510.191406 268.800781 511.296875 269.515625 512.480469 270.378906 C 514.492188 271.859375 516.359375 273.546875 518.023438 275.402344 C 519.765625 277.320312 521.292969 279.429688 522.566406 281.652344 C 522.660156 281.796875 522.785156 282.019531 522.898438 282.242188 C 524.070312 284.328125 525.0625 286.621094 525.796875 288.984375 C 526.917969 292.511719 527.488281 296.222656 527.488281 300 C 527.488281 304.011719 526.84375 307.945312 525.582031 311.675781 C 524.808594 314.011719 523.789062 316.265625 522.550781 318.367188 C 522.429688 318.609375 522.25 318.925781 522.054688 319.234375 C 520.980469 320.980469 519.742188 322.65625 518.390625 324.183594 C 516.761719 326.066406 514.914062 327.78125 512.921875 329.269531 C 511.734375 330.195312 510.441406 331.050781 509.105469 331.804688 C 508.167969 332.359375 507.144531 332.890625 506.082031 333.382812 C 503.59375 334.53125 500.972656 335.398438 498.296875 335.9375 C 495.890625 336.460938 493.347656 336.726562 490.761719 336.726562 " fill-opacity="1" fill-rule="nonzero"/><path fill="#4d448b" d="M 630.277344 345.480469 L 630.285156 345.480469 Z M 490.761719 189.433594 C 483.234375 189.433594 475.53125 190.082031 467.863281 191.351562 C 460.085938 192.65625 452.171875 194.648438 444.34375 197.261719 C 441.128906 198.328125 437.796875 199.542969 434.425781 200.890625 C 430.425781 202.496094 426.421875 204.25 422.535156 206.105469 C 414.871094 209.75 407.195312 213.984375 399.734375 218.695312 C 392.023438 223.53125 384.484375 228.863281 376.683594 235 L 374.792969 236.5 C 366.976562 242.75 359.425781 249.324219 352.371094 256.039062 C 339.109375 268.621094 326.722656 282.417969 315.535156 297.042969 C 313.371094 299.855469 313.371094 300.128906 315.546875 302.980469 C 326.761719 317.667969 339.269531 331.570312 352.710938 344.289062 C 358.328125 349.613281 364.308594 354.914062 370.492188 360.042969 C 372.488281 361.695312 374.617188 363.40625 376.996094 365.285156 C 384.414062 371.089844 391.921875 376.398438 399.304688 381.050781 C 407.074219 385.953125 414.90625 390.285156 422.582031 393.933594 C 423.808594 394.523438 425.027344 395.101562 426.261719 395.65625 C 432.292969 398.390625 438.355469 400.777344 444.300781 402.746094 C 452.300781 405.398438 460.347656 407.398438 468.230469 408.6875 C 475.042969 409.8125 481.953125 410.441406 488.777344 410.550781 C 489.433594 410.566406 490.089844 410.566406 490.761719 410.566406 C 498.089844 410.527344 505.96875 409.867188 513.539062 408.640625 C 517.402344 408.023438 521.242188 407.234375 524.957031 406.3125 C 528.886719 405.332031 532.878906 404.183594 536.828125 402.886719 C 544.53125 400.367188 552.253906 397.234375 559.785156 393.589844 C 567.144531 390.046875 574.617188 385.871094 582.007812 381.179688 C 584.128906 379.832031 585.886719 378.6875 587.523438 377.578125 C 593.484375 373.566406 599.359375 369.304688 604.984375 364.925781 C 613.171875 358.554688 621.265625 351.578125 629.042969 344.1875 C 641.59375 332.230469 653.699219 318.816406 665.019531 304.316406 C 668.371094 300.015625 668.371094 300.015625 665.019531 295.679688 C 654.003906 281.460938 641.804688 267.988281 628.757812 255.636719 C 625.007812 252.082031 621.066406 248.507812 617.042969 245.011719 C 612.949219 241.472656 608.871094 238.101562 604.929688 235 C 597.429688 229.113281 589.839844 223.738281 582.367188 219.015625 C 574.742188 214.207031 567.015625 209.917969 559.386719 206.257812 C 556.675781 204.953125 553.882812 203.691406 550.859375 202.402344 C 546.25 200.433594 541.652344 198.695312 537.1875 197.230469 C 529.308594 194.601562 521.363281 192.617188 513.5625 191.332031 C 507.566406 190.335938 501.46875 189.726562 495.433594 189.519531 C 493.953125 189.460938 492.425781 189.433594 490.761719 189.433594 Z M 490.769531 414.144531 C 490.066406 414.144531 489.386719 414.144531 488.710938 414.128906 C 481.722656 414.015625 474.632812 413.371094 467.648438 412.21875 C 459.582031 410.902344 451.351562 408.855469 443.171875 406.144531 C 437.109375 404.136719 430.925781 401.703125 424.796875 398.917969 C 423.53125 398.355469 422.277344 397.761719 421.03125 397.15625 C 413.246094 393.457031 405.285156 389.058594 397.398438 384.082031 C 389.910156 379.359375 382.304688 373.984375 374.785156 368.105469 C 372.375 366.203125 370.226562 364.46875 368.210938 362.796875 C 361.964844 357.621094 355.921875 352.265625 350.253906 346.890625 C 336.667969 334.035156 324.03125 319.992188 312.699219 305.152344 C 309.570312 301.046875 309.566406 298.933594 312.691406 294.863281 C 323.992188 280.09375 336.511719 266.15625 349.90625 253.445312 C 357.035156 246.65625 364.660156 240.011719 372.566406 233.699219 L 374.46875 232.195312 C 382.375 225.972656 390.011719 220.570312 397.824219 215.667969 C 405.40625 210.882812 413.203125 206.574219 420.996094 202.871094 C 424.949219 200.984375 429.023438 199.199219 433.097656 197.570312 C 436.539062 196.195312 439.9375 194.949219 443.210938 193.871094 C 451.210938 191.191406 459.308594 189.160156 467.277344 187.824219 C 475.136719 186.515625 483.039062 185.855469 490.761719 185.855469 C 492.46875 185.855469 494.039062 185.882812 495.558594 185.945312 C 501.746094 186.15625 508 186.78125 514.148438 187.804688 C 522.132812 189.117188 530.265625 191.148438 538.3125 193.832031 C 542.867188 195.328125 547.566406 197.101562 552.261719 199.113281 C 555.335938 200.421875 558.175781 201.707031 560.933594 203.03125 C 568.683594 206.75 576.539062 211.109375 584.277344 215.988281 C 591.855469 220.773438 599.546875 226.226562 607.140625 232.183594 C 611.128906 235.320312 615.25 238.726562 619.386719 242.308594 C 623.449219 245.84375 627.429688 249.449219 631.21875 253.042969 C 644.398438 265.515625 656.722656 279.125 667.847656 293.492188 C 672.292969 299.226562 672.292969 300.8125 667.839844 306.515625 C 656.410156 321.15625 644.191406 334.703125 631.507812 346.777344 C 631.507812 346.78125 631.507812 346.78125 631.507812 346.78125 C 623.640625 354.25 615.460938 361.304688 607.179688 367.746094 C 601.496094 372.179688 595.554688 376.488281 589.523438 380.542969 C 587.855469 381.671875 586.074219 382.832031 583.921875 384.199219 C 576.421875 388.96875 568.820312 393.210938 561.34375 396.8125 C 553.667969 400.523438 545.792969 403.714844 537.941406 406.289062 C 533.914062 407.609375 529.835938 408.78125 525.820312 409.785156 C 522.011719 410.734375 518.070312 411.539062 514.113281 412.171875 C 506.359375 413.425781 498.289062 414.109375 490.769531 414.144531 " fill-opacity="1" fill-rule="nonzero"/></svg>