<svg xmlns="http://www.w3.org/2000/svg" xmlns:xlink="http://www.w3.org/1999/xlink" width="1280" zoomAndPan="magnify" viewBox="0 0 960 599.999999" height="800" preserveAspectRatio="xMidYMid meet" version="1.0"><path fill="#413a84" d="M 365.09375 3.503906 C 352.046875 3.503906 341.550781 14.007812 341.550781 27.011719 L 341.550781 107.191406 C 341.550781 120.238281 352.039062 130.742188 365.09375 130.742188 C 378.097656 130.742188 388.601562 120.238281 388.601562 107.191406 L 388.601562 79.855469 C 399.425781 87.484375 405.847656 99.839844 405.847656 113.078125 C 405.847656 135.582031 387.59375 153.832031 365.09375 153.832031 C 342.550781 153.832031 324.300781 135.582031 324.300781 113.078125 L 324.300781 45.726562 L 295.453125 45.726562 C 279.394531 45.726562 264.113281 49.78125 252.144531 59.28125 C 240.191406 68.8125 232.613281 83.605469 230.972656 100.488281 L 207.464844 471.605469 C 206.371094 488.671875 210.199219 505.101562 220.335938 517.550781 C 230.464844 530.019531 246.484375 537.820312 264.226562 537.820312 L 553.292969 537.820312 C 553.109375 535.855469 553.015625 533.894531 553.015625 531.972656 L 553.015625 502.535156 L 268.25 502.535156 C 259.582031 502.535156 254.289062 499.519531 250.3125 494.640625 C 246.34375 489.804688 244.242188 482.453125 244.738281 473.109375 L 259.714844 183.589844 L 699.539062 183.589844 L 710.722656 399.667969 L 748.828125 424.824219 L 728.246094 100.488281 C 726.640625 83.605469 719.070312 68.8125 707.113281 59.28125 C 695.117188 49.78125 679.835938 45.726562 663.765625 45.726562 L 617.667969 45.726562 L 617.667969 27.011719 C 617.667969 14.007812 607.179688 3.503906 594.175781 3.503906 C 581.113281 3.503906 570.625 14.007812 570.625 27.011719 L 570.625 107.191406 C 570.625 120.238281 581.113281 130.746094 594.175781 130.746094 C 607.179688 130.746094 617.667969 120.238281 617.667969 107.191406 L 617.667969 79.855469 C 628.488281 87.484375 634.921875 99.839844 634.921875 113.078125 C 634.921875 135.582031 616.660156 153.832031 594.167969 153.832031 C 571.667969 153.832031 553.40625 135.582031 553.40625 113.078125 L 553.40625 45.726562 L 388.601562 45.726562 L 388.601562 27.011719 C 388.601562 14 378.097656 3.503906 365.09375 3.503906 Z M 365.09375 3.503906 " fill-opacity="1" fill-rule="evenodd"/><path fill="#413a84" d="M 321.382812 243.589844 L 379.886719 243.589844 C 388.464844 243.589844 395.351562 250.484375 395.351562 259.054688 L 395.351562 304.695312 C 395.351562 313.273438 388.453125 320.160156 379.886719 320.160156 L 321.382812 320.160156 C 312.804688 320.160156 305.917969 313.265625 305.917969 304.695312 L 305.917969 259.054688 C 305.917969 250.484375 312.804688 243.589844 321.382812 243.589844 Z M 321.382812 243.589844 " fill-opacity="1" fill-rule="evenodd"/><path fill="#413a84" d="M 450.394531 243.589844 L 508.898438 243.589844 C 517.476562 243.589844 524.363281 250.484375 524.363281 259.054688 L 524.363281 304.695312 C 524.363281 313.273438 517.464844 320.160156 508.898438 320.160156 L 450.394531 320.160156 C 441.816406 320.160156 434.929688 313.265625 434.929688 304.695312 L 434.929688 259.054688 C 434.929688 250.484375 441.816406 243.589844 450.394531 243.589844 Z M 450.394531 243.589844 " fill-opacity="1" fill-rule="evenodd"/><path fill="#413a84" d="M 579.40625 243.589844 L 637.910156 243.589844 C 646.488281 243.589844 653.375 250.484375 653.375 259.054688 L 653.375 304.695312 C 653.375 313.273438 646.476562 320.160156 637.910156 320.160156 L 579.40625 320.160156 C 570.828125 320.160156 563.941406 313.265625 563.941406 304.695312 L 563.941406 259.054688 C 563.929688 250.484375 570.828125 243.589844 579.40625 243.589844 Z M 579.40625 243.589844 " fill-opacity="1" fill-rule="evenodd"/><path fill="#413a84" d="M 321.382812 365.941406 L 379.886719 365.941406 C 388.464844 365.941406 395.351562 372.875 395.351562 381.460938 L 395.351562 427.050781 C 395.351562 435.636719 388.453125 442.566406 379.886719 442.566406 L 321.382812 442.566406 C 312.804688 442.566406 305.917969 435.636719 305.917969 427.050781 L 305.917969 381.460938 C 305.917969 372.875 312.804688 365.941406 321.382812 365.941406 Z M 321.382812 365.941406 " fill-opacity="1" fill-rule="evenodd"/><path fill="#413a84" d="M 450.394531 365.941406 L 508.898438 365.941406 C 517.476562 365.941406 524.363281 372.875 524.363281 381.460938 L 524.363281 427.050781 C 524.363281 435.636719 517.464844 442.566406 508.898438 442.566406 L 450.394531 442.566406 C 441.816406 442.566406 434.929688 435.636719 434.929688 427.050781 L 434.929688 381.460938 C 434.929688 372.875 441.816406 365.941406 450.394531 365.941406 Z M 450.394531 365.941406 " fill-opacity="1" fill-rule="evenodd"/><path fill="#413a84" d="M 580.589844 393.457031 L 580.457031 531.921875 C 580.457031 552.777344 595.878906 563.140625 608.425781 553.921875 L 643.339844 528.09375 L 671.089844 580.882812 C 676.601562 591.390625 688.289062 595.945312 697.332031 591.011719 L 717.828125 579.875 C 726.808594 574.941406 729.636719 562.589844 724.128906 552.082031 L 696.429688 499.238281 L 742.019531 483.363281 C 753.199219 479.472656 751.832031 460.679688 734.582031 448.21875 L 620.121094 372.691406 C 601.808594 360.652344 580.632812 369.035156 580.589844 393.457031 Z M 580.589844 393.457031 " fill-opacity="1" fill-rule="nonzero"/></svg>