<svg xmlns="http://www.w3.org/2000/svg" xmlns:xlink="http://www.w3.org/1999/xlink" width="1280" zoomAndPan="magnify" viewBox="0 0 960 599.999999" height="800" preserveAspectRatio="xMidYMid meet" version="1.0"><defs><clipPath id="bfb9c67fd5"><path d="M 115.113281 8 L 843 8 L 843 594 L 115.113281 594 Z M 115.113281 8 " clip-rule="nonzero"/></clipPath></defs><g clip-path="url(#bfb9c67fd5)"><path fill="#413a84" d="M 574.773438 441.011719 C 570.210938 460.753906 564.167969 480.246094 559.25 499.925781 C 556.066406 513.203125 553.246094 526.542969 550.339844 539.878906 C 547.988281 550.484375 544.128906 553.644531 533.203125 553.113281 C 511.507812 550.039062 490.789062 541.789062 469.75 535.851562 C 430.855469 526.542969 392.683594 513.179688 352.917969 508.28125 C 345.875 507.160156 338.976562 505.464844 332.21875 503.191406 C 327.976562 501.984375 326.726562 499.523438 327.234375 495.027344 C 328.601562 483.554688 331.03125 472.316406 334.53125 461.304688 C 340.109375 436.472656 345.28125 411.511719 352.34375 387.078125 C 327.765625 389.558594 268.214844 421.308594 250.269531 396.386719 C 237.78125 363.324219 232.433594 327.910156 221.429688 294.273438 C 211.90625 255.421875 203.507812 216.25 186.457031 179.75 C 178.738281 155.511719 134.519531 78.355469 162.34375 61.941406 C 210.953125 38.84375 263.570312 25.527344 316.589844 17.128906 C 317.816406 17.089844 318.898438 16.671875 319.832031 15.878906 C 335.824219 0.351562 360.402344 13.757812 372.472656 27.585938 C 400.972656 57.996094 410.792969 99.882812 425.828125 137.652344 C 428.183594 136.0625 430.496094 136.742188 432.914062 137.292969 C 443.09375 139.597656 453.34375 141.492188 463.664062 142.976562 C 493.058594 148.425781 522.726562 152.074219 552.398438 155.933594 C 552.835938 156.046875 553.28125 156.074219 553.734375 156.011719 C 554.183594 155.953125 554.605469 155.8125 555 155.589844 C 555.394531 155.363281 555.734375 155.074219 556.019531 154.722656 C 556.300781 154.367188 556.507812 153.972656 556.640625 153.539062 C 562.769531 140.6875 569.535156 128.089844 576.785156 115.894531 C 594.75 85.695312 607.773438 52.503906 630.570312 25.359375 C 638.246094 15.027344 650.800781 19.292969 660.089844 24.574219 C 668.09375 28.75 675.523438 33.777344 682.382812 39.652344 C 702.570312 57.699219 724.988281 72.375 747.214844 87.390625 C 761.761719 97.71875 808.714844 129.804688 806.425781 148.171875 C 793.699219 183.292969 774.613281 216.164062 755.125 247.847656 C 720.875 298.070312 701.042969 356.007812 668.171875 406.90625 C 657.390625 426.253906 645.289062 444.730469 631.863281 462.34375 C 622.871094 472.144531 608.535156 460.414062 600.199219 454.753906 C 592.460938 448.792969 583.488281 445.441406 574.773438 441.011719 Z M 272.792969 396.324219 C 303.585938 395.199219 330.777344 377.875 361.335938 374.542969 C 396.816406 368.605469 432.890625 360.125 465.765625 345.320312 C 470.300781 343.199219 474.585938 340.761719 478.933594 338.320312 C 486.144531 334.269531 492.484375 337.007812 487.417969 323.898438 C 468.332031 265.429688 439.042969 211.054688 419.679688 152.710938 C 404.199219 112.414062 394.039062 67.476562 364.539062 34.835938 C 355.757812 24.613281 339.917969 15.15625 326.875 23.765625 C 325.707031 24.671875 324.398438 25.265625 322.949219 25.546875 L 317.777344 26.289062 C 282.988281 33.179688 248.773438 42.238281 215.128906 53.457031 C 199.816406 58.652344 184.441406 63.660156 169.640625 70.425781 C 164.824219 72.542969 162.917969 75.640625 163.488281 80.644531 C 163.953125 90.367188 165.84375 99.804688 169.152344 108.957031 C 185.480469 156.253906 210.082031 200.578125 221.089844 249.628906 C 228.597656 286.257812 240.175781 321.738281 249.019531 358.109375 C 251.394531 369.570312 254.535156 380.816406 258.4375 391.851562 C 260.558594 397.597656 267.957031 395.242188 272.792969 396.324219 Z M 458.382812 358.382812 C 438.425781 365.296875 419.253906 373.589844 398.535156 378.042969 C 387.527344 380.417969 376.4375 382.433594 365.367188 384.40625 C 363.902344 384.683594 362.757812 384.914062 362.183594 386.695312 C 353.703125 411.105469 349.460938 436.515625 343.289062 461.539062 C 341.996094 467.203125 333.195312 491.910156 337.265625 494.242188 C 357.476562 501.132812 379.511719 499.542969 399.703125 506.777344 C 441.691406 516.636719 483.429688 527.136719 524.320312 541.175781 C 530.171875 542.46875 541.710938 548.152344 542.601562 538.628906 C 565.121094 444.636719 584.019531 349.878906 606.222656 255.738281 C 611.503906 235.761719 617.953125 216.078125 622.191406 195.824219 C 622.765625 190.757812 627.917969 175.277344 622.617188 174.46875 C 557.425781 169.421875 491.679688 165.542969 428.566406 146.773438 L 433.972656 163.039062 C 448.375 150.546875 459.550781 181.296875 440.1875 179.601562 C 452.464844 212.644531 468.542969 245.347656 481.035156 277.835938 C 481.710938 269.863281 483.980469 262.144531 485 254.125 C 472.125 249.886719 472.019531 248.25 474.394531 235.039062 C 476.070312 224.160156 487.121094 227.171875 494.710938 229.886719 C 500.164062 213.28125 494.308594 195.191406 519.3125 203.417969 C 531.421875 206.917969 519.695312 225.007812 521.054688 233.914062 C 527.414062 233.277344 537.445312 233.300781 536.429688 242.144531 C 535.347656 254.679688 538.910156 267.804688 521.054688 261.082031 C 517.929688 286.953125 512.976562 312.46875 506.199219 337.628906 C 499.421875 362.789062 490.882812 387.339844 480.589844 411.277344 C 484.828125 412.527344 484.828125 412.527344 484.34375 421.878906 C 497.851562 428.050781 514.605469 434.605469 520.566406 449.324219 C 525.1875 462.707031 509.132812 469.597656 498.339844 467.648438 C 485.421875 465.886719 472.679688 462.789062 459.65625 462.238281 C 455.09375 462.539062 450.605469 462.109375 446.179688 460.953125 C 441.757812 459.792969 437.632812 457.96875 433.804688 455.472656 C 422.246094 448.242188 410.476562 453.542969 402.902344 438.632812 C 394.082031 422.410156 418.746094 412.847656 431.597656 415.792969 C 437.347656 416.84375 443.144531 417.402344 448.988281 417.46875 C 449.414062 414.902344 448.988281 412.105469 450.601562 410.257812 C 451.273438 409.40625 451.75 408.453125 452.035156 407.402344 C 452.320312 406.355469 452.382812 405.289062 452.234375 404.214844 C 453.507812 388.921875 454.4375 373.695312 458.382812 358.382812 Z M 612.753906 269.3125 C 606.097656 296.203125 597.699219 324.046875 595.003906 351.214844 C 598.355469 355.964844 606.921875 356.113281 608.875 362.476562 C 611.78125 371.828125 621.410156 373.71875 627.960938 379.445312 C 628.355469 379.789062 628.722656 380.160156 629.070312 380.550781 C 629.417969 380.945312 629.738281 381.359375 630.03125 381.792969 C 630.324219 382.226562 630.59375 382.675781 630.828125 383.140625 C 631.066406 383.609375 631.277344 384.085938 631.453125 384.578125 C 631.632812 385.074219 631.777344 385.574219 631.890625 386.085938 C 632.007812 386.597656 632.089844 387.113281 632.140625 387.632812 C 632.1875 388.15625 632.207031 388.679688 632.191406 389.203125 C 632.175781 389.726562 632.125 390.246094 632.046875 390.761719 C 631.964844 391.28125 631.851562 391.789062 631.707031 392.292969 C 631.5625 392.796875 631.382812 393.289062 631.175781 393.769531 C 630.96875 394.25 630.734375 394.71875 630.46875 395.167969 C 630.203125 395.621094 629.910156 396.054688 629.589844 396.46875 C 629.269531 396.882812 628.925781 397.277344 628.558594 397.648438 C 628.1875 398.019531 627.796875 398.367188 627.382812 398.6875 C 626.972656 399.011719 626.539062 399.304688 626.089844 399.574219 C 625.640625 399.84375 625.175781 400.082031 624.695312 400.289062 C 622.3125 401.199219 620.09375 402.40625 618.035156 403.917969 C 607.8125 412.972656 592.355469 405.042969 588.664062 393.058594 C 597.402344 394.160156 604.398438 406.738281 613.5625 400.480469 C 617.316406 396.386719 626.285156 395.710938 625.839844 389.050781 C 625.839844 383.199219 619.753906 381.203125 615.535156 378.617188 C 614.15625 377.941406 612.867188 377.132812 611.664062 376.183594 C 610.460938 375.238281 609.367188 374.175781 608.390625 372.996094 C 607.414062 371.816406 606.570312 370.546875 605.859375 369.191406 C 605.152344 367.832031 604.59375 366.414062 604.1875 364.9375 C 604.03125 364.136719 603.734375 363.394531 603.296875 362.710938 C 602.855469 362.023438 602.304688 361.445312 601.644531 360.972656 L 593.160156 355.5 C 588.367188 380.1875 583.128906 404.574219 576.976562 428.921875 C 595.300781 431.210938 605.949219 446.628906 621.410156 454.265625 C 626.625 458.507812 642.765625 429.535156 646.199219 425.144531 C 681.636719 371.554688 704.246094 311.21875 737.964844 256.757812 C 754.722656 230.71875 769.859375 203.769531 783.371094 175.910156 C 800.488281 139.136719 800.210938 148.53125 770.839844 120.558594 C 739.578125 95.28125 703.800781 76.191406 674.238281 48.664062 C 667.875 43.554688 645.988281 25.335938 639.179688 31.464844 C 630.195312 42.359375 622.367188 54.03125 615.703125 66.480469 C 600.117188 97.1875 581.664062 126.667969 565.460938 156.847656 C 584.421875 159.835938 604.039062 160.769531 623.191406 163.207031 C 627.621094 163.675781 632.332031 163.503906 634.960938 168.042969 C 660.199219 152.648438 694.195312 176.355469 689.441406 205.261719 C 690.820312 205.855469 691.734375 205.15625 692.730469 205.09375 C 695 204.988281 696.335938 206.195312 695.679688 208.316406 C 694.640625 211.691406 694.492188 215.507812 692.242188 218.328125 C 682.867188 233.554688 669.824219 245.898438 659.347656 260.171875 C 652.625 270.5625 641.492188 272.027344 630.105469 272.34375 C 636.933594 277.414062 642.445312 283.4375 650.738281 285.9375 C 658.308594 288.652344 667.40625 292.726562 668.933594 301.546875 C 669.421875 306.933594 672.242188 311.367188 673.875 316.394531 C 674.046875 317.027344 674.175781 317.667969 674.265625 318.316406 C 674.355469 318.96875 674.402344 319.621094 674.410156 320.277344 C 674.417969 320.933594 674.382812 321.585938 674.308594 322.238281 C 674.234375 322.890625 674.121094 323.535156 673.964844 324.171875 C 673.808594 324.808594 673.613281 325.433594 673.378906 326.046875 C 673.144531 326.660156 672.871094 327.253906 672.5625 327.832031 C 672.253906 328.410156 671.910156 328.96875 671.527344 329.503906 C 671.148438 330.039062 670.738281 330.546875 670.296875 331.03125 C 669.851562 331.515625 669.378906 331.96875 668.878906 332.394531 C 668.378906 332.816406 667.855469 333.207031 667.304688 333.566406 C 666.753906 333.925781 666.183594 334.246094 665.59375 334.53125 C 665.003906 334.820312 664.398438 335.066406 663.777344 335.277344 C 663.15625 335.488281 662.523438 335.660156 661.878906 335.789062 C 661.238281 335.921875 660.589844 336.011719 659.933594 336.058594 C 659.28125 336.109375 658.625 336.117188 657.972656 336.082031 C 657.316406 336.050781 656.664062 335.976562 656.019531 335.863281 C 635.808594 330.027344 643.71875 332.339844 625.988281 338.808594 C 605.925781 341.417969 587.328125 310.199219 618.25 330.984375 C 628.195312 337.113281 637.101562 322.945312 647.492188 328.097656 C 654.046875 330.347656 662.699219 333.378906 667.109375 326.105469 C 672.308594 319.085938 664.652344 312.574219 664.078125 305.492188 C 663.78125 299.703125 660.472656 296.179688 655.59375 293.804688 C 646.964844 290.179688 637.78125 287.761719 631.441406 280.382812 C 626.605469 274.148438 618.417969 275.039062 612.753906 269.3125 Z M 692.792969 208.273438 C 681.660156 210.714844 674.171875 219.960938 663.101562 222.019531 C 655.53125 222.019531 640.433594 231.667969 635.363281 224.476562 C 635.128906 220.234375 658.351562 216.566406 661.511719 211.011719 C 651.503906 208.699219 635.9375 210.097656 628.617188 217.375 C 624.378906 232.21875 618.417969 247.191406 615.171875 262.144531 C 648.640625 272.746094 649.105469 265.726562 668.703125 241.316406 L 668.339844 240.617188 C 660.089844 250.945312 650.167969 256.351562 636.402344 252.429688 C 640.21875 248.484375 645.734375 249.84375 650.589844 248.71875 C 652.085938 248.628906 653.515625 248.273438 654.878906 247.648438 C 656.246094 247.027344 657.449219 246.183594 658.5 245.113281 C 666.390625 236.207031 676.929688 229.609375 684.566406 220.851562 C 673.496094 226.597656 661.386719 241.339844 648.511719 237.648438 C 654.089844 233.617188 661.40625 233.957031 666.898438 229.566406 C 675.382812 222.527344 687.535156 218.625 692.792969 208.273438 Z M 644.144531 223.246094 C 654.515625 219.664062 666.21875 219.492188 675.296875 212.644531 C 677.875 210.847656 680.605469 209.320312 683.484375 208.0625 C 684.226562 207.722656 685.03125 207.554688 685.117188 206.410156 C 688.402344 181.574219 661.449219 160.875 638.078125 170.355469 C 634.875 170.96875 638.078125 180.597656 636.636719 183.90625 C 635.976562 192.855469 632.117188 201.277344 631.144531 209.972656 C 633.628906 208.824219 636.195312 207.910156 638.847656 207.21875 C 641.496094 206.53125 644.183594 206.085938 646.914062 205.875 C 649.644531 205.667969 652.371094 205.703125 655.09375 205.980469 C 657.816406 206.257812 660.492188 206.777344 663.125 207.53125 C 674.832031 212.324219 647.980469 221.402344 644.144531 223.289062 Z M 475.414062 411.210938 C 497.363281 363.132812 509.070312 312.363281 517.214844 260.511719 C 512.828125 259.839844 508.484375 258.941406 504.191406 257.816406 C 501.160156 272.28125 498.699219 286.871094 494.753906 301.121094 C 493.015625 307.632812 492.253906 313.679688 495.414062 319.847656 C 499.886719 333.71875 499.273438 340.019531 484.46875 344.410156 C 482.347656 364.257812 475.984375 384.703125 471.042969 404.425781 C 468.964844 409.070312 472.507812 408.625 475.414062 411.253906 Z M 529.8125 255.738281 C 529.558594 252.261719 533.140625 238.773438 527.945312 239.003906 C 522.75 239.238281 514.691406 241.339844 515.644531 233.320312 C 516.492188 225.773438 518.890625 218.476562 519.757812 210.90625 C 520.226562 206.238281 509.855469 207.085938 506.609375 206.917969 C 502.007812 206.917969 503.789062 226.535156 500.121094 231.730469 C 497.746094 239.535156 489.050781 232.558594 483.515625 233.066406 C 478.957031 231.582031 479.441406 243.011719 477.917969 246.214844 C 487.355469 248.886719 497.003906 248.695312 506.398438 251.667969 C 513.957031 254.425781 521.761719 255.796875 529.8125 255.78125 Z M 482.835938 345.574219 C 477.046875 350.144531 470.6875 353.675781 463.75 356.179688 C 463.417969 356.289062 463.113281 356.441406 462.828125 356.644531 C 462.546875 356.847656 462.300781 357.089844 462.089844 357.371094 C 461.882812 357.648438 461.71875 357.953125 461.605469 358.28125 C 461.492188 358.609375 461.425781 358.949219 461.417969 359.296875 C 459.191406 375.117188 456.6875 390.980469 456.261719 406.949219 C 456.261719 407.691406 455.964844 408.605469 456.539062 409.070312 C 459.21875 412.140625 460.957031 415.675781 461.753906 419.675781 C 463.175781 415.242188 466.804688 412.0625 468.457031 408.222656 C 472.890625 387.289062 477.363281 367.078125 482.835938 345.617188 Z M 491.636719 307.402344 C 494.457031 290.433594 497.386719 273.765625 501.289062 257.242188 C 497.242188 256.167969 493.144531 255.390625 488.988281 254.910156 C 487.226562 259.769531 487.460938 265.324219 485.976562 270.414062 C 482.816406 285.089844 482.816406 285.089844 488.097656 299.214844 C 489.347656 302.015625 489.390625 304.769531 491.636719 307.335938 Z M 440.738281 173.515625 C 450.070312 174.617188 446.125 164.097656 440.738281 164.460938 C 440.417969 164.417969 440.09375 164.40625 439.773438 164.433594 C 439.449219 164.457031 439.132812 164.519531 438.820312 164.613281 C 438.511719 164.703125 438.214844 164.832031 437.929688 164.988281 C 437.648438 165.144531 437.382812 165.328125 437.140625 165.542969 C 436.894531 165.757812 436.679688 165.992188 436.484375 166.253906 C 436.292969 166.515625 436.128906 166.792969 435.996094 167.085938 C 435.863281 167.382812 435.761719 167.6875 435.691406 168.007812 C 435.625 168.324219 435.589844 168.644531 435.59375 168.96875 C 435.59375 169.292969 435.628906 169.613281 435.695312 169.929688 C 435.765625 170.246094 435.867188 170.550781 436.003906 170.847656 C 436.136719 171.140625 436.304688 171.417969 436.496094 171.675781 C 436.691406 171.9375 436.910156 172.171875 437.15625 172.386719 C 437.402344 172.597656 437.664062 172.78125 437.949219 172.9375 C 438.234375 173.09375 438.53125 173.21875 438.84375 173.308594 C 439.152344 173.402344 439.46875 173.460938 439.792969 173.484375 C 440.117188 173.507812 440.4375 173.496094 440.761719 173.453125 Z M 137.933594 188.636719 C 136.003906 190.3125 144.082031 196.355469 145.039062 198.984375 C 148.132812 203.589844 136.554688 206.238281 138.675781 211.03125 C 141.496094 210.375 143.152344 207.828125 145.757812 206.789062 C 146.351562 210.289062 144.65625 213.726562 146.183594 217.671875 C 148.726562 213.429688 147.902344 209.039062 148.898438 204.816406 C 151.347656 207.949219 154.226562 210.621094 157.53125 212.835938 C 155.871094 208.730469 153.601562 204.996094 150.722656 201.636719 C 155.324219 196.589844 160.730469 192.390625 164.613281 186.792969 C 158.546875 189.378906 154.707031 193.769531 149.089844 197.523438 C 148.558594 194.554688 150.425781 186.199219 147.878906 185.710938 C 145.230469 186.601562 147.050781 192.074219 146.542969 195.210938 C 144.105469 193.175781 140.351562 187.386719 137.933594 188.636719 Z M 828.375 191.648438 C 826.253906 188.59375 825.746094 185.050781 823.496094 182.445312 C 822.140625 183.101562 822.4375 183.863281 822.734375 184.714844 C 823.984375 190.417969 829.964844 196.738281 822.734375 200.746094 C 821.585938 201.632812 820.589844 202.664062 819.746094 203.84375 C 819.171875 204.5 818.195312 204.988281 818.640625 206.453125 C 822.5 206.21875 823.625 201.976562 826.890625 200.703125 C 826.058594 206.554688 825.691406 212.4375 825.789062 218.347656 C 829.839844 213.726562 828.652344 207.597656 830.304688 202.144531 C 832.425781 204.394531 832.871094 207.703125 835.863281 209.1875 C 836.753906 205.433594 834.355469 202.507812 832.597656 199.539062 C 827.273438 194.425781 841.417969 191.054688 842.5 185.074219 C 838.695312 187.230469 835.066406 189.652344 831.621094 192.347656 C 832.257812 187.214844 833.316406 182.464844 832.085938 177.628906 C 829.816406 181.976562 830.328125 187.066406 828.375 191.648438 Z M 115.113281 157.886719 C 115.347656 168.933594 131.570312 168.488281 131.507812 157.480469 C 131.167969 144.96875 115.324219 146.644531 115.113281 157.886719 Z M 834.632812 104.652344 C 824.304688 104.1875 823.730469 120.453125 834.121094 120.539062 C 844.492188 121.046875 844.980469 104.738281 834.632812 104.652344 Z M 446.824219 95.046875 C 436.773438 94.539062 435.925781 109.890625 446.039062 110.144531 C 455.816406 110.507812 457.21875 95.152344 446.824219 95.046875 Z M 470.917969 587.683594 C 470.386719 588.253906 469.496094 589 470.195312 589.804688 C 472.210938 591.457031 477.046875 585.433594 479.359375 584.332031 C 480.441406 586.070312 481.480469 587.746094 482.519531 589.359375 C 483.558594 590.96875 483.917969 593.175781 486.761719 593.386719 C 486.375 589.683594 485.074219 586.332031 482.859375 583.335938 C 482.636719 583.113281 482.472656 582.859375 482.359375 582.566406 C 482.246094 582.277344 482.195312 581.976562 482.207031 581.664062 C 482.21875 581.351562 482.292969 581.054688 482.425781 580.777344 C 482.5625 580.496094 482.75 580.253906 482.984375 580.046875 C 485.976562 575.808594 490.34375 571.351562 490.066406 565.964844 C 486.300781 569.960938 482.839844 574.203125 479.675781 578.691406 C 476.601562 574.132812 473.84375 569.636719 469.074219 566.964844 C 470.832031 572.242188 474.90625 576.167969 477.066406 581.300781 C 475.074219 583.503906 472.976562 585.5625 470.917969 587.683594 Z M 188.851562 282.164062 C 188.554688 291.601562 203.421875 291.769531 203.359375 282.332031 C 203.570312 272.832031 188.789062 272.746094 188.789062 282.164062 Z M 428.246094 559.710938 C 428.246094 569.53125 442.246094 568.617188 442.371094 559.328125 C 442.5 550.039062 428.097656 550.761719 428.246094 559.710938 Z M 536.9375 44.464844 C 533.246094 43.746094 530.195312 44.933594 527.074219 44.828125 C 527.605469 42.707031 529.917969 40.925781 528.878906 38.144531 C 526.757812 39.503906 526.375 41.984375 524.359375 43.636719 C 524.410156 40.796875 524.226562 37.96875 523.808594 35.15625 C 523.808594 34.457031 523.683594 33.648438 522.8125 33.648438 C 520.523438 33.796875 523.023438 41.371094 522.707031 43.53125 C 520.691406 42.683594 520.332031 40.011719 517.785156 40.246094 C 517.976562 42.707031 519.90625 44.148438 520.714844 46.035156 C 519.355469 47.222656 517.066406 46.609375 516.21875 48.707031 C 518.019531 50.191406 519.886719 48.410156 521.773438 49.003906 C 521.265625 50.105469 520.671875 51.125 520.289062 52.226562 C 519.90625 53.332031 518.71875 54.179688 519.949219 55.34375 C 521.433594 55.113281 521.285156 53.222656 522.578125 52.820312 C 523.214844 55.089844 522.578125 57.65625 524.699219 59.925781 C 526.460938 56.46875 524.699219 53.289062 525.125 50.023438 L 531.488281 54.6875 C 531.679688 51.082031 528.6875 50.128906 527.097656 47.921875 C 530.234375 46.734375 533.90625 47.09375 536.9375 44.464844 Z M 763.269531 336.792969 C 763.269531 346.445312 777.625 344.9375 777.308594 335.585938 C 777.625 325.980469 762.886719 328.863281 763.269531 336.792969 Z M 600.390625 493.859375 C 600.136719 503 614.429688 503.128906 614.386719 493.988281 C 614.347656 484.847656 600.304688 484.71875 600.390625 493.859375 Z M 683.484375 450.597656 C 675.234375 450.382812 674.34375 463.320312 682.890625 463.449219 C 691.054688 463.828125 691.96875 450.597656 683.484375 450.597656 Z M 533.988281 91.355469 C 533.648438 99.519531 546.585938 99.710938 546.460938 91.527344 C 546.691406 83.507812 534.011719 83.339844 533.988281 91.355469 Z M 474.035156 66.183594 C 473.886719 74.113281 486.464844 74.050781 486.1875 66.183594 C 485.910156 58.316406 473.886719 58.464844 474.035156 66.183594 Z M 170.464844 367.757812 C 170.273438 374.925781 181.070312 374.375 181.21875 367.441406 C 181.367188 360.503906 170.464844 361.671875 170.464844 367.757812 Z M 145.207031 261.71875 C 145.207031 268.71875 155.9375 268.441406 155.8125 261.507812 C 155.683594 254.570312 145.015625 254.933594 145.207031 261.699219 Z M 773.171875 42.300781 C 778.601562 42.746094 778.941406 34.308594 773.574219 34.222656 C 767.53125 34.117188 766.980469 41.921875 773.171875 42.300781 Z M 786.851562 246.152344 C 786.851562 251.15625 794.550781 251.304688 794.675781 246.28125 C 794.804688 241.253906 786.894531 241.019531 786.851562 246.152344 Z M 422.414062 20.160156 C 422.414062 25.039062 429.859375 24.019531 429.710938 19.652344 C 429.5625 15.285156 422.265625 15.921875 422.414062 20.160156 Z M 272.050781 442.304688 C 267.640625 442.089844 265.457031 448.792969 270.460938 449.21875 C 274.554688 449.492188 277.3125 442.410156 272.050781 442.304688 Z M 217.527344 14.945312 C 217.800781 19.3125 223.550781 16.9375 223.292969 13.3125 C 223.273438 8.921875 217.207031 11.871094 217.527344 14.945312 Z M 720.789062 391.023438 C 724.816406 390.851562 723.417969 385.210938 719.941406 385.339844 C 715.402344 385.679688 716.90625 390.875 720.789062 391.023438 Z M 518.0625 8.921875 C 514.328125 8.539062 513.585938 14.03125 517.785156 13.777344 C 520.90625 14.03125 521.648438 8.5625 518.0625 8.921875 Z M 279.433594 132.5625 C 283.671875 129.402344 285.09375 129.613281 288.316406 133.792969 C 288.65625 134.257812 288.890625 134.917969 289.632812 134.769531 C 293.875 133.984375 295.527344 136.785156 296.949219 139.878906 C 299.261719 139.753906 301.042969 139.160156 301.550781 136.613281 C 301.742188 135.574219 303.058594 135.382812 303.671875 134.664062 C 301.550781 126.179688 302.738281 123.082031 308.488281 122.234375 C 311.011719 113.136719 313.320312 111.632812 320.492188 114.261719 C 324.03125 106.074219 330.203125 111.523438 334.402344 116.105469 C 339.515625 112.375 346.128906 118.226562 344.6875 125.269531 C 351.21875 128.195312 354.464844 137.292969 350.5625 145.648438 C 357.625 149.253906 356.925781 159.285156 352.429688 166.855469 C 359.132812 173.027344 359.578125 177.863281 353.976562 184.4375 C 358.070312 191.902344 357.625 195.042969 351.433594 202.441406 C 358.453125 211.605469 356.183594 217.839844 347.550781 223.417969 C 352.003906 228.824219 352.40625 238.261719 344.6875 241.191406 C 346.808594 244.6875 347.828125 250.753906 342.929688 252.21875 C 345.496094 256.226562 346.300781 263.222656 339.917969 263.183594 C 339.070312 263.183594 338.433594 263.183594 337.796875 263.902344 C 333.765625 268.398438 329.96875 267.679688 327.742188 262.078125 C 320.679688 262.800781 319.683594 262.078125 319.261719 255.015625 C 312.453125 254.210938 312.261719 253.914062 313.726562 246.238281 C 309.039062 248.632812 301.53125 246.914062 301.722656 240.765625 C 296.441406 240.765625 293.726562 240.214844 294.636719 231.390625 C 289.992188 231.644531 285.519531 227.914062 286.980469 223.035156 C 279.453125 221.488281 278.160156 219.875 278.902344 212.664062 C 272.007812 213.472656 268.550781 208.996094 271.371094 202.550781 C 264.863281 201.914062 264.289062 201.191406 265.011719 194.597656 C 258.925781 192.644531 257.757812 191.054688 258.648438 185.878906 C 251.289062 186.429688 248.765625 182.1875 253.429688 176.230469 C 246.050781 173.453125 243.867188 169.082031 248.066406 165.246094 C 244.925781 161.492188 238.796875 151.203125 246.664062 149.636719 C 246.136719 141.152344 249.042969 137.84375 255.953125 139.390625 C 256 139.082031 256.066406 138.777344 256.152344 138.476562 C 256.238281 138.175781 256.34375 137.882812 256.464844 137.597656 C 256.585938 137.308594 256.726562 137.03125 256.886719 136.761719 C 257.042969 136.492188 257.21875 136.234375 257.410156 135.984375 C 257.601562 135.738281 257.808594 135.503906 258.027344 135.285156 C 258.25 135.0625 258.484375 134.855469 258.730469 134.664062 C 258.976562 134.472656 259.234375 134.300781 259.503906 134.140625 C 259.773438 133.984375 260.054688 133.84375 260.339844 133.71875 C 260.628906 133.597656 260.921875 133.492188 261.222656 133.40625 C 261.523438 133.324219 261.828125 133.257812 262.136719 133.210938 C 262.445312 133.164062 262.757812 133.136719 263.070312 133.128906 C 263.382812 133.125 263.691406 133.136719 264.003906 133.167969 C 264.3125 133.203125 264.621094 133.253906 264.925781 133.324219 C 265.230469 133.398438 265.527344 133.488281 265.820312 133.597656 C 266.113281 133.707031 266.398438 133.835938 266.671875 133.984375 C 266.949219 134.128906 267.214844 134.292969 267.472656 134.472656 C 272.050781 127.050781 275.402344 127.683594 279.433594 132.5625 Z M 333.554688 256.417969 C 341.125 221.679688 348.101562 187.257812 342.546875 151.839844 C 342.546875 142.722656 330.351562 113.519531 318.582031 124.269531 C 309.546875 133.878906 311.054688 147.597656 313.746094 159.453125 C 313.90625 159.871094 313.980469 160.300781 313.976562 160.746094 C 313.96875 161.191406 313.882812 161.621094 313.714844 162.035156 C 313.542969 162.445312 313.304688 162.8125 312.996094 163.132812 C 312.683594 163.453125 312.328125 163.707031 311.921875 163.890625 C 311.515625 164.074219 311.089844 164.175781 310.644531 164.199219 C 310.199219 164.21875 309.765625 164.15625 309.34375 164.015625 C 308.925781 163.871094 308.542969 163.652344 308.203125 163.363281 C 307.867188 163.074219 307.59375 162.734375 307.382812 162.339844 C 298.902344 153.855469 291.710938 142.488281 278.796875 140.917969 C 269.359375 138.289062 255.339844 147.195312 256.992188 157.714844 C 259.328125 172.5625 270.589844 183.929688 278.476562 196.144531 C 295.429688 217.523438 313.789062 237.613281 333.554688 256.417969 Z M 335.484375 119.839844 C 338.472656 123.289062 341.027344 127.035156 343.152344 131.074219 C 345.277344 135.113281 346.910156 139.34375 348.0625 143.761719 C 351.199219 139.328125 348.761719 129.53125 343.289062 128.066406 C 340.191406 127.453125 341.78125 125.035156 341.996094 122.890625 C 342.144531 119.394531 337.5 115.640625 335.503906 119.839844 Z M 256.039062 174.109375 C 254.292969 170.976562 253.003906 167.667969 252.167969 164.183594 C 251.332031 160.695312 250.984375 157.164062 251.121094 153.578125 C 249.125 153.898438 247.746094 151.609375 245.542969 152.902344 C 245.605469 154.921875 246.058594 156.855469 246.898438 158.695312 C 247.742188 160.53125 248.910156 162.136719 250.398438 163.503906 C 252.265625 165.097656 251.988281 165.878906 249.996094 166.941406 C 245.054688 169.699219 252.5625 173.941406 256.039062 174.109375 Z M 347.507812 220.40625 C 354.445312 216.820312 355.417969 209.460938 349.503906 204.265625 C 349.15625 209.6875 348.492188 215.066406 347.507812 220.40625 Z M 289.675781 219.304688 L 282.65625 211.394531 C 278.945312 216.757812 282.1875 222.613281 289.675781 219.304688 Z M 261.300781 182.613281 C 260.34375 180.875 258.667969 176.25 256.210938 177.097656 C 255.742188 177.292969 255.3125 177.550781 254.917969 177.871094 C 254.523438 178.191406 254.183594 178.558594 253.894531 178.976562 C 253.605469 179.394531 253.382812 179.84375 253.226562 180.324219 C 253.066406 180.808594 252.980469 181.300781 252.964844 181.808594 C 253.539062 184.945312 259.328125 184.4375 261.300781 182.613281 Z M 350.667969 185.878906 L 349.925781 200.066406 C 355.441406 195.550781 355.824219 188.785156 350.667969 185.878906 Z M 350.839844 169.847656 C 350.332031 174.109375 350.472656 178.351562 351.261719 182.570312 C 356.351562 178.988281 356.246094 173.007812 350.839844 169.847656 Z M 280.726562 209.378906 C 278.605469 206.960938 276.84375 204.691406 274.871094 202.273438 C 269.675781 207.597656 274.023438 212.367188 280.726562 209.378906 Z M 251.585938 151.5 C 252.523438 148.417969 254.136719 145.738281 256.421875 143.464844 C 250.25 138.289062 246.75 146.476562 251.585938 151.5 Z M 350.519531 163.738281 C 354.636719 158.605469 353.679688 149.445312 349.078125 148.554688 C 349.8125 153.589844 350.292969 158.652344 350.519531 163.738281 Z M 298.476562 229.78125 C 294.660156 235.867188 298.835938 241 304.097656 235.910156 Z M 291.5625 221.574219 C 286.199219 225.6875 291.5625 230.648438 296.441406 227.46875 C 294.984375 225.363281 293.355469 223.398438 291.5625 221.574219 Z M 262.445312 184.308594 C 258.074219 188.042969 261.660156 193.578125 266.6875 191.394531 C 266.261719 188.679688 263.824219 186.917969 262.445312 184.308594 Z M 343.839844 238.070312 C 344.097656 237.96875 344.351562 237.851562 344.59375 237.71875 C 344.839844 237.585938 345.074219 237.4375 345.300781 237.273438 C 345.523438 237.109375 345.738281 236.933594 345.941406 236.742188 C 346.144531 236.554688 346.335938 236.351562 346.515625 236.136719 C 346.691406 235.921875 346.855469 235.699219 347.007812 235.460938 C 347.15625 235.226562 347.289062 234.984375 347.410156 234.734375 C 347.527344 234.480469 347.628906 234.222656 347.71875 233.957031 C 347.804688 233.695312 347.875 233.425781 347.925781 233.152344 C 347.980469 232.878906 348.015625 232.601562 348.03125 232.324219 C 348.050781 232.046875 348.050781 231.769531 348.035156 231.492188 C 348.015625 231.214844 347.980469 230.9375 347.929688 230.664062 C 347.878906 230.390625 347.808594 230.121094 347.726562 229.855469 C 347.640625 229.589844 347.539062 229.332031 347.417969 229.082031 C 347.300781 228.828125 347.167969 228.585938 347.019531 228.347656 C 346.871094 228.113281 346.707031 227.890625 346.53125 227.675781 C 346.351562 227.460938 346.164062 227.257812 345.960938 227.066406 C 345.21875 230.863281 344.160156 234.296875 343.839844 238.070312 Z M 273.132812 199.539062 C 271.703125 197.398438 270.140625 195.363281 268.445312 193.429688 C 264.691406 198.011719 267.808594 201.914062 273.132812 199.539062 Z M 311.605469 243.925781 L 306.429688 238.601562 C 301.382812 241.191406 307.234375 246.214844 311.605469 243.925781 Z M 306.746094 133.476562 C 307.109375 131.355469 310.988281 126.242188 308.675781 125.5 C 304.457031 124.632812 305.09375 130.886719 306.746094 133.476562 Z M 318.878906 117.082031 C 314.425781 114.492188 311.476562 118.460938 311.984375 122.617188 C 313.941406 120.347656 316.238281 118.5 318.878906 117.082031 Z M 340.085938 253.597656 C 339.472656 255.804688 339.203125 258.050781 339.28125 260.339844 C 343.96875 261.464844 342.566406 255.78125 340.148438 253.53125 Z M 331.433594 117.632812 C 329.714844 115.109375 324.136719 110.253906 323.988281 115.640625 C 326.597656 115.832031 329.078125 116.496094 331.433594 117.632812 Z M 319.640625 251.878906 C 318.4375 250.195312 317.023438 248.710938 315.402344 247.425781 C 315.71875 249.375 314.339844 250.902344 315.78125 252.175781 C 316.738281 253.128906 318.050781 252.8125 319.578125 251.878906 Z M 305.984375 137.714844 C 302.421875 136.972656 302.867188 142.933594 305.371094 144.375 Z M 265.222656 136.613281 C 261.449219 135.320312 259.328125 136.867188 259.453125 140.410156 Z M 322.125 254.933594 C 321.445312 259.492188 322.441406 260.402344 325.917969 259.429688 Z M 341.210938 249.269531 C 344.5625 250.074219 344.519531 245.429688 342.589844 243.691406 C 341.855469 245.511719 341.410156 247.398438 341.253906 249.355469 Z M 276.441406 134.195312 C 275.0625 131.332031 272.007812 131.332031 271.289062 134.429688 Z M 281.59375 135.257812 C 282.9375 135.902344 284.351562 136.199219 285.835938 136.148438 C 284.332031 132.921875 283.632812 132.753906 281.59375 135.257812 Z M 283.714844 339.382812 C 282.082031 343.304688 277.503906 339.085938 274.511719 339.253906 C 267.003906 337.683594 263.503906 345.488281 266.6875 351.171875 C 267.894531 353.742188 269.328125 356.183594 270.984375 358.488281 C 272.640625 360.796875 274.492188 362.933594 276.539062 364.902344 C 278.589844 366.871094 280.796875 368.636719 283.167969 370.199219 C 285.542969 371.765625 288.035156 373.097656 290.652344 374.207031 C 299.621094 377.9375 302.101562 351.46875 302.570312 345.488281 C 303.523438 332.085938 289.738281 327.800781 283.671875 339.382812 Z M 433.464844 325.46875 C 437.21875 329.839844 442.394531 331.832031 447.460938 333.953125 C 454.226562 336.835938 455.328125 323.136719 457.238281 318.808594 C 458.617188 311.132812 462.984375 297.074219 453.292969 293.359375 C 446.929688 292.109375 443.707031 297.941406 442.179688 303.390625 C 422.035156 289.332031 418.386719 315.757812 433.421875 325.46875 Z M 331.730469 67.75 C 336.15625 71.4375 340.820312 74.789062 345.726562 77.804688 C 351.75 82.046875 353.933594 69.851562 356.332031 66.117188 C 358.878906 60.011719 360.152344 53.648438 360.148438 47.03125 C 359.089844 35.707031 345.644531 36.789062 342.96875 47.179688 C 325.75 30.128906 318.433594 57.699219 331.730469 67.75 Z M 182.171875 95.429688 C 185.226562 101.152344 205.796875 121.324219 209.042969 108.597656 C 211.164062 98.628906 213.285156 87.03125 208.808594 77.507812 C 203.972656 69.660156 195.875 77.507812 195.066406 84.039062 C 184.695312 74.664062 175.300781 84.484375 182.171875 95.429688 Z M 324.03125 305.238281 C 324.179688 295.523438 323.796875 285.832031 324.222656 276.117188 C 324.222656 274.507812 325.324219 271.984375 322.929688 271.6875 C 317.308594 272.046875 319.175781 302.140625 323.332031 305.40625 Z M 282 282.949219 C 286.070312 270.222656 290.882812 258.15625 293.9375 245.390625 C 289.886719 244.03125 277.332031 282.164062 282 282.949219 Z M 364.136719 236.121094 C 362.777344 235.25 360.933594 233.363281 359.554688 235.441406 C 356.734375 239.535156 383.648438 253.679688 387.125 251.773438 C 379.808594 246.042969 372.148438 240.828125 364.136719 236.121094 Z M 349.992188 269.289062 C 347.699219 265.175781 345.535156 271.582031 346.554688 273.785156 C 348.675781 282.480469 353.171875 292.511719 362.417969 295.398438 C 359.464844 291.523438 356.941406 287.386719 354.847656 282.988281 C 352.753906 278.589844 351.136719 274.023438 349.992188 269.289062 Z M 305.453125 260.808594 C 305.773438 259.492188 306.769531 257.390625 304.796875 256.863281 C 300.023438 256.585938 295.167969 287.699219 298.199219 291.089844 C 301.253906 281.589844 302.613281 270.691406 305.539062 260.828125 Z M 283.523438 114.046875 C 284.117188 117.058594 284.414062 123.316406 288.574219 123.105469 C 291.054688 122.445312 287.152344 102.914062 285.816406 100.519531 C 281.703125 103.464844 283.207031 109.699219 283.523438 114.046875 Z M 274.171875 124.84375 C 276.71875 123.316406 269.039062 105.015625 267.511719 101.960938 C 264.183594 104.675781 268.679688 126.902344 274.171875 124.84375 Z M 301 111.441406 C 300.851562 114.15625 304.117188 113.835938 304.054688 111.335938 C 304.988281 103.402344 308.613281 95.957031 308.996094 88.003906 C 302.886719 93.753906 300.808594 103.0625 301.023438 111.441406 Z M 256.507812 129.804688 C 252.859375 126.308594 249.761719 121.324219 245.710938 118.691406 C 245.265625 124.609375 251.796875 132.882812 257.078125 133.03125 C 257.207031 132.765625 257.289062 132.488281 257.332031 132.195312 C 257.371094 131.90625 257.363281 131.613281 257.3125 131.324219 C 257.261719 131.035156 257.167969 130.761719 257.027344 130.503906 C 256.890625 130.242188 256.71875 130.011719 256.507812 129.804688 Z M 324.371094 103.636719 C 324.179688 105.988281 326.640625 106.160156 326.957031 103.933594 C 328.210938 98.121094 331.667969 91.800781 331.730469 86.179688 C 328.402344 89.042969 323.988281 99.519531 324.308594 103.699219 Z M 608.894531 197.269531 C 608.238281 205.113281 598.652344 215.484375 590.167969 208.273438 C 589.277344 207.648438 588.496094 206.902344 587.832031 206.039062 C 587.164062 205.175781 586.644531 204.230469 586.265625 203.210938 C 585.886719 202.1875 585.667969 201.132812 585.609375 200.042969 C 585.554688 198.953125 585.660156 197.878906 585.925781 196.824219 C 588.621094 185.074219 608.554688 181.679688 608.894531 197.269531 Z M 603.042969 197.585938 C 601.28125 190.355469 595.363281 190.585938 591.949219 196.1875 C 587.371094 206.003906 602.089844 210.648438 603.042969 197.671875 Z M 518.210938 505.695312 C 531.253906 505.101562 529.980469 527.960938 517.746094 527.367188 C 503.21875 526.246094 502.855469 506.203125 518.296875 505.695312 Z M 522.324219 517.105469 C 522.324219 513.308594 519.929688 511.3125 515.390625 511.230469 C 513.949219 511.230469 512.316406 513.945312 512.359375 516.320312 C 512.484375 522.640625 522.558594 524.84375 522.410156 517.105469 Z M 363.585938 468.324219 C 376.628906 467.730469 375.332031 490.59375 363.117188 490.019531 C 348.613281 489.003906 348.230469 468.941406 363.667969 468.429688 Z M 367.699219 479.734375 C 367.699219 475.9375 365.300781 473.945312 360.765625 473.882812 C 359.320312 473.882812 357.6875 476.574219 357.710938 478.949219 C 357.859375 485.398438 367.933594 487.582031 367.785156 479.839844 Z M 511.65625 473.371094 C 508.691406 472.578125 505.671875 472.238281 502.601562 472.359375 C 499.53125 472.476562 496.550781 473.050781 493.652344 474.074219 C 481.820312 477.59375 469.835938 467.328125 458.109375 470.933594 C 458.136719 471.128906 458.203125 471.308594 458.300781 471.472656 C 458.402344 471.640625 458.53125 471.78125 458.6875 471.898438 C 458.847656 472.015625 459.019531 472.09375 459.210938 472.140625 C 459.398438 472.1875 459.589844 472.195312 459.785156 472.164062 C 471.425781 472.164062 482.15625 480.117188 493.820312 477.019531 C 496.730469 476.050781 499.71875 475.515625 502.78125 475.414062 C 505.847656 475.3125 508.863281 475.648438 511.828125 476.425781 C 521.539062 480.054688 537.382812 464.785156 528.898438 454.519531 C 530.46875 464.316406 522.304688 475.917969 511.699219 473.5625 Z M 567.859375 248.570312 C 568.664062 250.371094 572.269531 256.4375 568.070312 254.71875 C 564.742188 251.539062 561.835938 252.597656 558.972656 255.421875 C 553.753906 258.75 557.402344 250.542969 558.273438 248.441406 C 556.597656 247.023438 552.863281 246.640625 552.992188 244.199219 C 553.457031 242.90625 554.859375 243.394531 555.898438 243.480469 C 562.875 244.390625 560.011719 240.066406 563.765625 237.117188 C 566.566406 238.285156 564.042969 243.480469 568.007812 242.992188 C 578.527344 242.355469 575.324219 245.792969 567.859375 248.570312 Z M 564.71875 245.429688 C 563.574219 246.003906 561.8125 244.6875 561.21875 246.449219 C 560.773438 247.765625 562.492188 247.847656 563.214844 248.570312 C 564.125 247.785156 565.824219 247.617188 564.71875 245.429688 Z M 526.058594 419.609375 L 529.535156 414.710938 C 528.199219 413.035156 524.808594 411.847656 525.507812 409.390625 C 525.609375 409.171875 525.75 408.984375 525.921875 408.816406 C 526.09375 408.652344 526.292969 408.523438 526.511719 408.429688 C 526.734375 408.335938 526.964844 408.28125 527.203125 408.273438 C 527.441406 408.261719 527.675781 408.296875 527.902344 408.371094 C 531.679688 409.515625 534.5625 408.878906 536.046875 404.828125 C 539.1875 401.839844 538.570312 408.203125 538.570312 410.089844 C 540.859375 410.9375 544.933594 409.855469 545.761719 412.210938 C 545.761719 414.332031 542.855469 414.332031 541.519531 415.113281 C 536.40625 416.429688 540.882812 419.355469 538.210938 421.265625 C 538.011719 421.355469 537.804688 421.410156 537.589844 421.421875 C 537.375 421.4375 537.160156 421.410156 536.953125 421.34375 C 536.75 421.277344 536.5625 421.171875 536.394531 421.035156 C 536.226562 420.898438 536.089844 420.734375 535.984375 420.542969 C 533.140625 417.171875 530.023438 420.757812 526.058594 419.609375 Z M 534.414062 415.179688 C 536.535156 414.859375 537.722656 412.292969 534.878906 412.039062 C 534.679688 412.023438 534.484375 412.046875 534.289062 412.105469 C 534.097656 412.164062 533.921875 412.257812 533.765625 412.382812 C 533.609375 412.507812 533.480469 412.65625 533.378906 412.832031 C 533.28125 413.007812 533.214844 413.191406 533.183594 413.390625 C 533.15625 413.589844 533.164062 413.789062 533.207031 413.984375 C 533.253906 414.179688 533.332031 414.363281 533.449219 414.527344 C 533.5625 414.691406 533.703125 414.832031 533.867188 414.945312 C 534.035156 415.058594 534.21875 415.136719 534.414062 415.179688 Z M 473.1875 190.25 C 476.027344 196.800781 471.957031 196.1875 468.054688 192.667969 C 466.316406 194.066406 461.351562 197.289062 462.476562 192.667969 C 465.0625 186.515625 456.347656 186.664062 460.886719 184.183594 C 464.132812 184.183594 467.078125 184.480469 468.097656 180.640625 C 468.332031 179.898438 468.734375 178.921875 469.816406 179.070312 C 471.660156 179.601562 470.8125 182.445312 471.597656 183.929688 C 482.496094 184.269531 484.722656 185.539062 473.1875 190.25 Z M 468.5 186.453125 C 466.1875 186.089844 466.589844 189.230469 468.5 189.0625 C 470.429688 189.398438 470.578125 185.964844 468.5 186.453125 Z M 400.082031 395.308594 C 401.417969 397.429688 403.605469 402.792969 399.066406 400.671875 C 395.734375 397.28125 391.941406 397.703125 387.996094 399.316406 C 387.371094 399.597656 386.71875 399.714844 386.035156 399.65625 C 385.351562 399.601562 384.726562 399.378906 384.15625 398.996094 C 385.933594 397.800781 387.265625 396.222656 388.144531 394.269531 C 387.929688 393.335938 387.082031 393.144531 386.511719 392.699219 C 386.304688 392.621094 386.121094 392.507812 385.957031 392.359375 C 385.796875 392.210938 385.671875 392.035156 385.578125 391.835938 C 385.484375 391.636719 385.4375 391.425781 385.425781 391.207031 C 385.417969 390.988281 385.453125 390.773438 385.527344 390.566406 C 385.601562 390.363281 385.714844 390.175781 385.863281 390.015625 C 386.011719 389.855469 386.1875 389.726562 386.386719 389.632812 C 386.585938 389.542969 386.796875 389.492188 387.015625 389.480469 C 387.234375 389.472656 387.449219 389.503906 387.65625 389.582031 C 393.042969 391.703125 394.144531 382.730469 396.542969 387.207031 C 397.453125 390.257812 399.660156 390.21875 402.097656 390.046875 C 402.96875 390.046875 404.21875 389.707031 404.429688 390.9375 C 404.707031 393.398438 401.714844 393.886719 400.082031 395.308594 Z M 392.089844 392.527344 C 393.148438 393.695312 394.039062 395.03125 395.671875 394.417969 C 396.179688 394.226562 396.839844 394.054688 396.691406 393.230469 C 395.90625 391.765625 393.507812 392.785156 392.089844 392.527344 Z M 561.921875 193.175781 C 560.796875 189.867188 554.222656 192.136719 554.222656 187.789062 C 553.777344 183.039062 549.703125 189.0625 547.097656 187.109375 C 545.949219 186.578125 544.445312 185.117188 543.257812 186.683594 C 542.070312 188.253906 544.253906 189.101562 544.65625 190.417969 C 543.660156 191.859375 541.792969 192.667969 541.136719 194.660156 C 544.59375 196.929688 548.984375 194.042969 551.742188 197.714844 C 553.863281 200.46875 556.238281 199.347656 555.496094 195.847656 C 557.59375 195.550781 561.582031 196.058594 561.921875 193.175781 Z M 516.175781 489.300781 C 525.292969 487.898438 535.261719 481.261719 538.378906 472.671875 C 531.53125 478.484375 525.125 485.164062 515.816406 486.332031 C 508.265625 487.941406 489.070312 478.378906 485.867188 487.792969 C 495.878906 482.554688 505.847656 490.613281 516.175781 489.300781 Z M 446.1875 488.324219 C 449.285156 489.832031 449.792969 489.449219 449.496094 486.035156 C 450.75 485.121094 453.273438 485.226562 453.144531 483.128906 C 452.976562 481.347656 451.152344 481.367188 449.941406 481.304688 C 444.683594 481.433594 446.867188 476.597656 443.582031 476.003906 C 441.078125 476.574219 442.117188 481.367188 438.449219 479.566406 C 431.40625 477.996094 434.566406 482.34375 438.449219 484.484375 C 438.277344 485.3125 437.910156 486.039062 437.34375 486.664062 C 436.777344 487.289062 436.09375 487.730469 435.289062 487.984375 C 437.472656 492.925781 442.542969 486.226562 446.105469 488.324219 Z M 396.605469 451.296875 C 389.4375 445.929688 390.5625 440.375 391.941406 432.824219 C 390.859375 432.824219 390.710938 433.628906 390.414062 434.265625 C 385.746094 443.894531 392.746094 454.285156 402.183594 456.980469 C 408.863281 459.566406 416.222656 459.757812 422.859375 462.597656 C 424.375 463.074219 425.886719 463.074219 427.398438 462.597656 C 418.660156 455.75 405.449219 458.292969 396.519531 451.296875 Z M 433.253906 406.757812 C 434.566406 407.054688 436.859375 407.714844 437.195312 405.890625 C 437.535156 404.066406 435.078125 404.679688 434.039062 404.363281 C 421.949219 401.074219 406.742188 402.75 399.023438 413.398438 C 409.5 407.796875 421.183594 403.855469 433.230469 406.71875 Z M 527.859375 313.847656 C 540.160156 313.339844 551.972656 311.21875 564.402344 311.089844 C 560.964844 307.441406 528.410156 307.953125 527.777344 313.804688 Z M 378.367188 435.707031 C 372.214844 444.339844 382.355469 461.625 391.769531 466.203125 C 384.453125 457.253906 378.34375 447.921875 378.28125 435.664062 Z M 519.292969 365.128906 C 518.527344 364.34375 517.746094 363.007812 516.386719 364.003906 C 513.882812 368.710938 529.300781 380.3125 533.796875 382.347656 C 530.449219 375.328125 524.171875 370.8125 519.207031 365.085938 Z M 506.800781 422.390625 C 506.601562 422.332031 506.40625 422.335938 506.210938 422.40625 C 506.015625 422.476562 505.859375 422.597656 505.742188 422.769531 C 505.625 422.941406 505.574219 423.132812 505.578125 423.339844 C 505.585938 423.546875 505.65625 423.730469 505.785156 423.894531 C 513.566406 428.007812 518.613281 434.859375 524.871094 440.863281 C 525.253906 434.457031 512.316406 423.28125 506.714844 422.472656 Z M 528.984375 326.953125 C 528.804688 326.863281 528.613281 326.816406 528.414062 326.8125 C 528.210938 326.808594 528.019531 326.847656 527.835938 326.929688 C 527.652344 327.007812 527.492188 327.125 527.359375 327.277344 C 527.226562 327.425781 527.132812 327.601562 527.078125 327.792969 C 527.023438 327.984375 527.007812 328.183594 527.039062 328.378906 C 527.070312 328.578125 527.144531 328.761719 527.257812 328.929688 C 527.367188 329.09375 527.511719 329.230469 527.683594 329.335938 C 527.855469 329.4375 528.042969 329.5 528.242188 329.519531 C 534.753906 332.257812 541.265625 335.011719 547.5625 338.214844 C 547.691406 338.214844 547.878906 338.214844 548.707031 337.941406 C 546.089844 335.078125 543.085938 332.699219 539.699219 330.808594 C 536.3125 328.921875 532.710938 327.613281 528.898438 326.890625 Z M 652.582031 67.964844 C 649.613281 75.875 648.914062 83.914062 655.382812 90.445312 C 655.691406 90.785156 655.871094 91.183594 655.921875 91.644531 C 655.972656 92.101562 655.882812 92.527344 655.652344 92.929688 C 655.421875 93.328125 655.097656 93.621094 654.675781 93.808594 C 654.253906 93.996094 653.820312 94.039062 653.367188 93.945312 C 645.183594 90.105469 636.828125 91.25 630.972656 98.503906 C 630.609375 98.816406 630.191406 98.988281 629.710938 99.015625 C 629.234375 99.042969 628.796875 98.925781 628.398438 98.65625 C 628.003906 98.386719 627.730469 98.027344 627.578125 97.574219 C 627.425781 97.121094 627.425781 96.664062 627.578125 96.210938 C 628.375 94.589844 628.964844 92.894531 629.347656 91.128906 C 629.730469 89.359375 629.894531 87.574219 629.839844 85.765625 C 629.789062 83.957031 629.519531 82.183594 629.03125 80.441406 C 628.542969 78.703125 627.855469 77.042969 626.964844 75.472656 C 626.03125 73.625 624.25 71.613281 626.5625 69.808594 C 629.722656 67.6875 633.390625 73.308594 635.871094 74.941406 C 640.21875 79.269531 650.78125 57.148438 652.582031 67.964844 Z M 631.820312 76.785156 C 632.699219 77.976562 633.371094 79.269531 633.832031 80.671875 C 634.296875 82.078125 634.53125 83.515625 634.535156 84.992188 C 634.523438 87.59375 633.816406 89.992188 632.414062 92.183594 C 633.644531 90.941406 635.03125 89.914062 636.578125 89.09375 C 638.121094 88.277344 639.753906 87.710938 641.472656 87.390625 C 644.117188 86.925781 646.726562 87.085938 649.296875 87.878906 C 648.4375 87.058594 647.707031 86.136719 647.101562 85.117188 C 646.496094 84.097656 646.039062 83.011719 645.734375 81.867188 C 645.425781 80.71875 645.28125 79.550781 645.296875 78.367188 C 645.308594 77.179688 645.484375 76.015625 645.820312 74.878906 C 645.332031 75.28125 644.632812 75.832031 643.699219 76.445312 C 642.382812 77.441406 640.96875 78.269531 639.457031 78.929688 C 636.53125 79.902344 633.113281 77.65625 631.820312 76.785156 Z M 684.097656 241.105469 C 685.59375 241.304688 687.007812 241.757812 688.339844 242.460938 C 692.710938 243.480469 696.039062 237.605469 699.8125 235.78125 C 702.082031 233.535156 704.585938 235.910156 702.890625 238.453125 C 699.878906 243.457031 697.289062 248.632812 701.488281 253.828125 C 702.148438 254.761719 703.226562 255.78125 702.167969 256.96875 C 701.109375 258.15625 700.046875 257.285156 699.113281 256.839844 C 693.898438 254.253906 690.269531 259.578125 686.792969 262.609375 C 686.15625 263.222656 685.5 263.753906 684.566406 263.246094 C 684.347656 263.152344 684.152344 263.015625 683.988281 262.84375 C 683.824219 262.671875 683.699219 262.472656 683.613281 262.246094 C 683.53125 262.023438 683.492188 261.792969 683.503906 261.554688 C 683.515625 261.3125 683.570312 261.085938 683.675781 260.871094 C 689.570312 253.765625 673.453125 241.890625 684.097656 241 Z M 696.101562 252.683594 C 695.019531 248.886719 695.019531 248.886719 695.976562 242.675781 C 692.941406 244.308594 690.398438 246.914062 686.621094 246.914062 C 688.292969 249.347656 689.367188 252.019531 689.847656 254.933594 C 691.753906 253.574219 693.875 252.789062 696.207031 252.578125 Z M 681.257812 164.269531 C 685.605469 157.269531 694.171875 154.40625 698.542969 147.597656 C 703.058594 137.84375 711.902344 130.632812 717.160156 121.875 C 708.148438 124.1875 701.128906 132.011719 696.949219 140.070312 C 695.699219 142.890625 694.109375 145.507812 692.1875 147.921875 C 690.265625 150.335938 688.070312 152.46875 685.605469 154.324219 C 683.039062 156.441406 677.121094 161.382812 679.644531 164.925781 C 679.953125 164.953125 680.25 164.898438 680.527344 164.761719 C 680.804688 164.625 681.027344 164.425781 681.191406 164.164062 Z M 713.703125 163.164062 C 711.648438 165.816406 709.3125 168.195312 706.695312 170.300781 C 704.078125 172.402344 701.253906 174.175781 698.222656 175.613281 C 696.800781 176.292969 693.980469 178.160156 695.0625 180.046875 C 698.503906 179.445312 701.800781 178.386719 704.945312 176.863281 C 708.089844 175.34375 710.96875 173.421875 713.578125 171.097656 C 716.996094 167.492188 720.773438 164.3125 724.914062 161.5625 C 729.050781 158.816406 733.445312 156.5625 738.09375 154.808594 C 739.410156 153.898438 742.015625 153.769531 742.144531 151.90625 C 731.945312 151.925781 720.851562 155.253906 713.640625 163.058594 Z M 643.507812 150.78125 C 643.277344 151.65625 643.207031 152.539062 643.304688 153.441406 C 643.398438 154.339844 643.648438 155.191406 644.058594 155.996094 C 644.101562 156.175781 644.175781 156.335938 644.277344 156.488281 C 644.382812 156.636719 644.507812 156.765625 644.65625 156.867188 C 644.804688 156.96875 644.96875 157.042969 645.144531 157.085938 C 645.324219 157.128906 645.5 157.140625 645.683594 157.117188 C 645.863281 157.097656 646.03125 157.042969 646.195312 156.957031 C 646.355469 156.875 646.496094 156.761719 646.617188 156.625 C 646.734375 156.488281 646.828125 156.335938 646.890625 156.164062 C 646.953125 155.996094 646.984375 155.820312 646.984375 155.636719 C 647.769531 151.476562 648.855469 147.398438 650.25 143.398438 C 653.027344 135.085938 651.355469 126.285156 651.800781 117.695312 C 652.089844 115.402344 651.707031 113.222656 650.652344 111.164062 C 643.1875 123.125 647.9375 137.652344 643.441406 150.675781 Z M 710.652344 194.085938 C 707.9375 194.871094 708.339844 197.96875 711.246094 197.5 C 721.847656 196.335938 734.148438 198.242188 743.3125 191.945312 C 737.863281 190.839844 732.363281 190.457031 726.816406 190.804688 C 721.265625 191.148438 715.855469 192.207031 710.585938 193.980469 Z M 663.84375 147.855469 C 662.550781 149.894531 661.84375 152.121094 661.722656 154.535156 C 660.75 158.160156 664.035156 158.777344 664.820312 155.320312 C 665.59375 152.890625 666.679688 150.613281 668.085938 148.488281 C 671.214844 144.242188 673.726562 139.660156 675.617188 134.734375 C 677.511719 129.8125 678.71875 124.726562 679.242188 119.476562 C 671.160156 127.199219 670.527344 139.09375 663.78125 147.746094 Z M 626.390625 154.046875 C 628.40625 153.410156 627.855469 151.140625 627.539062 149.59375 C 625.796875 143.484375 625.796875 136.59375 622.003906 131.289062 C 618.628906 133.921875 621.089844 155.253906 626.328125 153.941406 Z M 488.246094 242.207031 C 497.003906 247.320312 506.929688 249.015625 516.492188 252.113281 C 518.0625 248.761719 488.117188 237.265625 488.246094 242.207031 Z M 508.730469 236.882812 C 520.246094 199.28125 508.730469 207.195312 507.160156 238.878906 C 508.667969 238.558594 508.519531 237.648438 508.730469 236.96875 Z M 509.175781 213.554688 C 509.070312 210.203125 506.546875 212.644531 506.164062 214.742188 C 504.914062 221.105469 501.710938 228.378906 503.621094 234.636719 C 506.417969 227.894531 508.269531 220.902344 509.175781 213.660156 Z M 322.546875 177.289062 C 327.382812 176.78125 335.632812 178.542969 333.425781 185.347656 C 330.988281 195.65625 323.164062 199.324219 313.914062 201.191406 C 307.171875 203.164062 290.460938 201.042969 296.738281 190.734375 C 297.40625 189.65625 298.140625 188.625 298.945312 187.648438 C 299.753906 186.667969 300.621094 185.746094 301.550781 184.882812 C 302.480469 184.019531 303.464844 183.222656 304.503906 182.492188 C 305.539062 181.761719 306.621094 181.101562 307.75 180.519531 C 308.875 179.933594 310.035156 179.429688 311.230469 179 C 312.425781 178.570312 313.640625 178.226562 314.882812 177.960938 C 316.125 177.699219 317.378906 177.519531 318.644531 177.425781 C 319.910156 177.328125 321.175781 177.320312 322.441406 177.394531 Z M 308.570312 182.316406 C 292.601562 192.007812 294.679688 202.847656 313.980469 198.625 C 309.1875 194.234375 308.316406 188.617188 308.464844 182.421875 Z M 314.933594 180.195312 C 319.832031 184.648438 322.355469 189.695312 321.296875 196.144531 C 322.425781 195.621094 323.480469 194.976562 324.457031 194.210938 C 325.4375 193.441406 326.316406 192.574219 327.09375 191.601562 C 327.867188 190.628906 328.523438 189.582031 329.054688 188.457031 C 329.589844 187.332031 329.984375 186.164062 330.246094 184.945312 C 331.433594 177.800781 319.535156 179.390625 314.785156 180.195312 Z M 314.933594 180.195312 " fill-opacity="1" fill-rule="nonzero"/></g></svg>